<?xml version="1.0" encoding="UTF-8" standalone="no"?>
<svg width="128px" height="128px" viewBox="0 0 128 128" version="1.1" xmlns="http://www.w3.org/2000/svg" xmlns:xlink="http://www.w3.org/1999/xlink">
    <g id="Page-1" stroke="none" stroke-width="1" fill="none" fill-rule="evenodd" >
        <g id="edwin" transform="translate(8.000000, 16.000000)" fill="#001F2D">
            <g id="shape">
                <path d="M72.8210221,1.36513194 C72.8259197,1.45002414 72.8324499,1.53491634 72.8324499,1.61980855 C72.8340824,2.99930686 72.8340824,4.37880517 72.8340824,5.75667093 L72.8340824,6.06195636 C72.6953163,6.07011907 72.5794058,6.08644449 72.4651278,6.08317941 C71.6521217,6.06195636 71.066039,6.56967704 70.8097298,7.24065195 C70.6823915,7.5736906 70.6121922,7.91978958 70.5713787,8.27405128 C70.5305651,8.63484315 70.5011793,8.99726755 70.4473054,9.35642688 C70.3852688,9.77272518 70.2987441,10.1841259 70.2285448,10.6004242 C70.1795685,10.882854 70.1403875,11.1669164 70.0946763,11.4509787 C70.0424349,11.7578967 69.9869285,12.0648147 69.9330546,12.3717326 C69.8677529,12.7455849 69.8024512,13.1194371 69.738782,13.4932893 C69.6898058,13.7757191 69.6473597,14.0597815 69.5983834,14.3422113 C69.5477746,14.6328038 69.4939007,14.9217638 69.4432919,15.2123564 C69.3943156,15.4947862 69.3486044,15.7788486 69.3012607,16.0612784 C69.2490193,16.3600337 69.1951454,16.6587889 69.1412715,16.9575442 C69.0449515,17.4864879 68.9437339,18.0170642 68.8523115,18.5476405 C68.8017027,18.838233 68.775582,19.1337232 68.7200756,19.4226832 C68.6694668,19.6953178 68.5927373,19.9630547 68.5307007,20.2340567 C68.4915197,20.4071062 68.4572363,20.5801557 68.4294831,20.7548378 C68.4017298,20.9131944 68.390302,21.0731835 68.3625488,21.2315401 C68.2890844,21.6543686 68.2025597,22.073932 68.1339929,22.4967605 C68.0425705,23.05509 67.9691061,23.615052 67.8760512,24.171749 C67.7927915,24.6615117 67.6866763,25.1480093 67.6001515,25.637772 C67.5479102,25.9283646 67.5119942,26.2205896 67.4646505,26.5128147 C67.4189393,26.8034073 67.3683305,27.0956324 67.3209868,27.3862249 C67.2475224,27.8351741 67.1789556,28.2841232 67.1054912,28.7330724 C67.0630451,28.9926466 67.0173339,29.2489558 66.9732553,29.5068974 C66.9177488,29.8301408 66.8622424,30.1550168 66.8051034,30.4782602 C66.7349041,30.8684378 66.6614397,31.2569829 66.5945054,31.648793 C66.5226736,32.0716215 66.4622695,32.4977151 66.3888051,32.9205436 C66.3202383,33.3188839 66.2353461,33.7155917 66.1667793,34.113932 C66.1161705,34.4045246 66.078622,34.6967497 66.0329109,34.9889748 C65.9757719,35.3644595 65.9170003,35.7399442 65.8533312,36.1137965 C65.8386383,36.2035863 65.7961922,36.290111 65.768439,36.3717381 C65.5415156,36.4288771 61.5532146,36.4288771 61.3115983,36.3701056 C61.2462966,35.9717653 61.1826274,35.5636297 61.1124281,35.1571266 C61.0650844,34.884492 61.0063129,34.6118575 60.9557041,34.3392229 C60.8887698,33.9653707 60.8234681,33.5915185 60.7581664,33.2160337 C60.6961298,32.8601395 60.6389908,32.5026127 60.5753217,32.1467185 C60.5198152,31.8300053 60.4594112,31.5149246 60.4006396,31.1998439 C60.3239102,30.7868107 60.242283,30.3737775 60.1704512,29.9591117 C60.1018844,29.5591388 60.0480105,29.1575334 59.9827088,28.7575605 C59.9206722,28.391871 59.8504729,28.0278141 59.7851712,27.6621246 C59.7312973,27.3633693 59.6806885,27.0646141 59.6268146,26.7658588 C59.5533502,26.369151 59.4749881,25.9724432 59.4047888,25.5741029 C59.3378546,25.2002507 59.2758179,24.8263985 59.2121488,24.4525462 C59.143582,24.0444107 59.0733827,23.6362751 59.0048159,23.229772 C58.9737976,23.0387645 58.9444118,22.8461245 58.9101285,22.6567496 C58.893803,22.5702249 58.8693149,22.4853327 58.8056457,22.402073 C58.7697298,22.5359415 58.7272837,22.66981 58.6995305,22.8069435 C58.5966803,23.3195618 58.5052579,23.8338127 58.3958776,24.346431 C58.2669068,24.9553693 58.1216105,25.5626751 57.9910071,26.1732459 C57.9028498,26.5846466 57.8310179,27.0009449 57.7477583,27.4139781 C57.6628661,27.8351741 57.5698112,28.2547374 57.4832864,28.6759334 C57.42778,28.9404052 57.3820688,29.2065097 57.3281949,29.4709815 C57.2433027,29.8840147 57.1518803,30.2954154 57.0653556,30.7084486 C56.9510776,31.2537178 56.8416973,31.7989869 56.7257868,32.3426236 C56.6408946,32.7393314 56.5445746,33.1311415 56.4596823,33.5278493 C56.3862179,33.8739483 56.3225488,34.2233124 56.2507169,34.5694114 C56.1266437,35.1718195 55.9993054,35.7742276 55.8752322,36.3668405 C55.6499413,36.4272446 52.2052769,36.4321422 51.9620281,36.3766358 C51.9114193,36.1056337 51.862443,35.8346317 51.8102017,35.5619971 C51.6910261,34.941631 51.573483,34.3212649 51.4510423,33.7008988 C51.3367644,33.1213463 51.2159562,32.5434263 51.1000457,31.9655063 C50.9825027,31.377791 50.8616945,30.7917083 50.7490491,30.203993 C50.6396688,29.6407659 50.5400837,29.0775388 50.4339684,28.5143117 C50.2968349,27.7845652 50.1564362,27.0564513 50.014405,26.3283374 C49.8772715,25.616549 49.7385054,24.9047605 49.5981067,24.192972 C49.4805637,23.597094 49.358123,23.0028486 49.2422125,22.4069706 C49.1197718,21.7784418 49.0071264,21.1482805 48.8846857,20.5197517 C48.7932633,20.0479469 48.6904132,19.5777747 48.6006233,19.10597 C48.4896105,18.5182547 48.3932905,17.9272744 48.2839101,17.3379266 C48.2153433,16.9755022 48.1288186,16.6147103 48.0635169,16.2506533 C48.0243359,16.0433205 48.0161732,15.8310899 47.9851549,15.6221245 C47.9296484,15.2482723 47.874142,14.8727876 47.8039427,14.5005679 C47.7370084,14.1446737 47.6488511,13.7936771 47.5753867,13.4394154 C47.4855969,13.0100567 47.4039698,12.5806981 47.3158125,12.1513394 C47.2456132,11.8134032 47.1672511,11.4770994 47.1019494,11.1391632 C47.0137921,10.6934791 46.9386952,10.2428974 46.8505379,9.79721332 C46.7378925,9.23561874 46.6252471,8.67402416 46.4962762,8.11732721 C46.3771006,7.60307636 46.1844606,7.11168111 45.8628498,6.68722009 C45.5885827,6.32316314 45.2147304,6.09623975 44.7314979,6.0635889 C44.7233352,5.99175704 44.7102749,5.9248228 44.7102749,5.8595211 C44.7102749,4.38696788 44.7102749,2.91441465 44.7119074,1.44022889 C44.7119074,1.41574075 44.716805,1.38962007 44.7200701,1.36513194 L53.2011278,1.36513194 C53.2027603,2.86380584 53.2043928,4.36247974 53.2043928,5.86115365 C53.2043928,5.92645534 53.1897,5.99175704 53.1831698,6.04726348 C53.1488864,6.06195636 53.1341935,6.07338415 53.1178681,6.0750167 C52.5056647,6.12399297 52.1350776,6.47335704 51.9261122,7.0267889 C51.7530627,7.48226823 51.7253095,7.9475428 51.8248945,8.42424518 C51.9473352,9.00869535 52.0583481,9.59641061 52.1807888,10.1808608 C52.2591508,10.5596106 52.3489406,10.9367279 52.4305678,11.3154777 C52.5285203,11.7693245 52.6199427,12.2215388 52.7162627,12.6753855 C52.7570762,12.8647604 52.807685,13.0525028 52.8452335,13.2418777 C52.9186979,13.5961394 52.9823671,13.9536662 53.0558315,14.3062954 C53.1407237,14.7111659 53.2305135,15.1144038 53.3203034,15.5176418 C53.3888701,15.8245598 53.460702,16.1298452 53.5455942,16.4922696 C53.5798776,16.4073774 53.5945705,16.3796242 53.6011006,16.3502384 C53.6810952,16.0302601 53.7594573,15.7119144 53.8361867,15.391936 C53.9929108,14.7372866 54.1480023,14.0826371 54.306359,13.4279876 C54.4043115,13.0263821 54.5120593,12.6264093 54.6051142,12.2231713 C54.712862,11.7644269 54.809182,11.3024174 54.9136647,10.8420404 C55.0361054,10.3000364 55.1471183,9.75476722 55.2875169,9.21766077 C55.465464,8.54505331 55.5748444,7.87244586 55.5079101,7.17208518 C55.4573013,6.64477399 55.0524308,6.13215568 54.4206369,6.08154687 C54.3732932,6.07828178 54.327582,6.06032382 54.2573827,6.04399839 L54.2573827,5.75667093 C54.2573827,4.37880517 54.2573827,2.99930686 54.2590152,1.61980855 C54.2590152,1.53491634 54.2688105,1.45002414 54.2737081,1.36513194 L63.4714519,1.36513194 C63.4698193,2.88992652 63.4698193,4.41308856 63.4681868,5.93788314 C63.4681868,5.96237127 63.4616566,5.98849195 63.4551264,6.01298009 C63.4534939,6.0211428 63.4469637,6.02767297 63.4420661,6.03420314 C63.4371685,6.04073331 63.4322708,6.04726348 63.4126803,6.07338415 C63.3441136,6.07664924 63.2608539,6.07828178 63.1775942,6.08644449 C62.9131224,6.11256517 62.6698736,6.22194551 62.5131495,6.42274822 C62.1768458,6.85373941 62.0397122,7.3696228 62.1099115,7.9050967 C62.1768458,8.41444992 62.3156119,8.91237535 62.4249922,9.4151984 C62.5115169,9.81027366 62.6078369,10.2037164 62.6943617,10.6004242 C62.8461881,11.3007848 62.9898519,12.0027781 63.1449434,12.7031388 C63.224938,13.0655632 63.324523,13.4230899 63.4045176,13.7838818 C63.5122654,14.2785421 63.6069529,14.774835 63.7114356,15.2711279 C63.806123,15.7135469 63.9057081,16.1559659 64.016721,16.6555238 C64.0754925,16.4579862 64.1277339,16.315955 64.1603847,16.1690262 C64.2648675,15.6923238 64.3579224,15.2123564 64.4640376,14.735654 C64.6191292,14.043456 64.7840159,13.3545232 64.94074,12.6639577 C65.0288973,12.2688825 65.1023617,11.8705421 65.1921515,11.4754669 C65.2966342,11.0150899 65.4158098,10.5579781 65.5219251,10.0976011 C65.6198776,9.67150756 65.7161976,9.24378145 65.7978247,8.81279026 C65.8614939,8.47322145 65.9186329,8.13038755 65.9463861,7.78755365 C65.961079,7.60634145 65.921898,7.41696653 65.8761868,7.23738687 C65.7619088,6.79496789 65.5660037,6.4064228 65.1007292,6.23337331 C64.8982939,6.15827636 64.6876959,6.10113738 64.4526098,6.02604043 L64.4526098,5.70769466 L64.4526098,1.72265872 C64.4526098,1.60348312 64.4460797,1.48430753 64.441182,1.36513194 L72.8210221,1.36513194 Z" id="Fill-2"></path>
                <path d="M110.680823,5.91241548 C110.295543,5.93363853 109.957606,6.06913954 109.671911,6.33361141 C109.33724,6.64216192 109.04175,6.97846565 108.922574,7.43394497 C108.860538,7.67066362 108.809929,7.90574972 108.809929,8.15716125 C108.813194,17.4626528 108.813194,26.7697769 108.813194,36.0752685 L108.813194,36.3952468 C108.700549,36.4017769 108.617289,36.4132047 108.535662,36.4132047 L104.193099,36.4132047 C103.922097,36.4132047 103.926995,36.4099396 103.829042,36.1617932 C103.749048,35.9560929 103.657625,35.7569227 103.566203,35.55612 C103.336014,35.0483993 103.097663,34.5439437 102.87074,34.036223 C102.578515,33.3864712 102.296085,32.7334542 102.007125,32.0837023 C101.814485,31.6494461 101.613682,31.2200874 101.41941,30.7874637 C101.13045,30.1475071 100.84149,29.5075505 100.554162,28.8675939 C100.304383,28.3108969 100.056237,27.7542 99.8064578,27.197503 C99.6285107,26.8040603 99.4505636,26.4106176 99.2726164,26.0155423 C98.985289,25.3755857 98.6946964,24.7372616 98.407369,24.097305 C98.175548,23.5781565 97.946992,23.0590081 97.715171,22.5414921 C97.5862002,22.2557972 97.4523317,21.9717348 97.3233608,21.6860399 C97.0768469,21.1375057 96.8335981,20.5873389 96.5854517,20.0388047 C96.4336253,19.7025009 96.2736361,19.3678298 96.0712008,19.0413213 C96.0646707,19.0935626 96.0532429,19.1474365 96.0532429,19.2013104 C96.0516103,22.691686 96.0450802,26.1836942 96.056508,29.6740698 C96.059773,30.4805457 96.4124022,31.1368278 97.1143954,31.5596562 C97.3103005,31.6788318 97.558447,31.7131152 97.7837378,31.7833145 C97.8310815,31.7980074 97.8816903,31.8061701 97.943727,31.8192305 L97.943727,36.3511681 C97.925769,36.3674935 97.9208714,36.3740237 97.9143412,36.3789213 C97.907811,36.383819 97.9012808,36.3903491 97.8931181,36.3919817 C97.8604673,36.4001444 97.8261839,36.4115722 97.7935331,36.4115722 C94.9071981,36.4115722 92.0208632,36.4132047 89.1345283,36.4132047 C89.0920822,36.4132047 89.0496361,36.4066746 89.00719,36.4001444 C88.9924971,36.3985118 88.9778042,36.3854515 88.9631113,36.3789213 C88.9059723,36.191179 88.8945446,32.0494189 88.9516835,31.7604589 C88.9859669,31.7490312 89.0235154,31.7278081 89.064329,31.7261756 C89.7271412,31.7131152 90.1369093,31.3049796 90.4601527,30.7972589 C90.6903412,30.4348345 90.7736008,30.0266989 90.7736008,29.58428 C90.7654381,22.4843532 90.7687032,15.3827938 90.762173,8.28123447 C90.762173,7.9204426 90.7001364,7.55801819 90.64463,7.19885887 C90.5760632,6.7531748 90.2773079,6.47237751 89.9050883,6.25361683 C89.6161283,6.08219988 89.2994151,5.99894022 88.9418883,5.95159649 C88.9337256,5.8438487 88.9190327,5.73773344 88.9190327,5.62998564 C88.9157676,4.20967378 88.9157676,2.78772936 88.9157676,1.36578495 L94.6378286,1.36578495 C94.6737446,1.45067716 94.7047629,1.53883445 94.747209,1.62209411 C95.3920632,2.91506767 96.0369175,4.20640869 96.6817717,5.49611717 C98.043312,8.21593277 99.4032198,10.9341158 100.763128,13.6539314 C101.066781,14.2596047 101.368801,14.8669104 101.667556,15.4758487 C101.821015,15.7843992 101.963046,16.0994799 102.114873,16.409663 C102.247109,16.680665 102.384242,16.951667 102.521376,17.2210365 C102.687895,17.5508101 102.85768,17.8789511 103.025831,18.2087247 C103.16623,18.4829918 103.304996,18.7588914 103.445395,19.0347911 C103.456823,19.0298935 103.466618,19.0249959 103.478046,19.0217308 L103.478046,18.7148128 C103.478046,15.0383274 103.474781,11.3618419 103.479678,7.6853565 C103.481311,6.84459717 102.896861,6.2062731 102.103445,6.08219988 C101.972842,6.06097683 101.843871,6.0250609 101.688779,5.98914497 L101.688779,1.36578495 L110.680823,1.36578495 L110.680823,5.91241548 Z" id="Fill-4"></path>
                <path d="M33.8883147,1.36513194 C33.9438211,1.37982482 33.9993276,1.41247567 34.0532015,1.40921058 C34.3813425,1.38635499 34.6915255,1.48594007 35.0049737,1.54797668 C35.5649357,1.65735702 36.1004096,1.84836448 36.598335,2.12752923 C37.1011581,2.40669397 37.6007161,2.69565397 38.0480327,3.06134347 C38.3827038,3.33561059 38.7304354,3.59355228 39.0455161,3.88740991 C39.5826225,4.38860042 39.9809628,4.99590619 40.3188991,5.64892314 C40.7449927,6.47172449 41.0812964,7.32880924 41.353931,8.21201467 C41.4698415,8.5907645 41.5416734,8.98257467 41.6216679,9.37111976 C41.7065601,9.77599027 41.7816571,10.1824933 41.8518564,10.5889964 C41.9024652,10.8877516 41.9367486,11.189772 41.9857249,11.4901598 C42.0395988,11.8313611 42.1016354,12.1709299 42.1555093,12.5121313 C42.1832625,12.6868133 42.2061181,12.8631279 42.220811,13.0394425 C42.2452991,13.3610533 42.2534618,13.6826642 42.2844801,14.0026425 C42.3122334,14.3030303 42.3595771,14.6034181 42.395493,14.9038059 C42.4052883,14.9805354 42.4069208,15.0572649 42.4085534,15.1339944 C42.4297764,15.9731211 42.4248788,16.815513 42.4803852,17.6546398 C42.5065059,18.0431849 42.5538496,18.4366276 42.5179337,18.8219076 C42.4656923,19.3557489 42.5163012,19.8944879 42.4558971,20.4217991 C42.4020232,20.900134 42.4607947,21.3768364 42.4003906,21.8453761 C42.3399866,22.2943252 42.3661073,22.7432744 42.3334564,23.190591 C42.3057032,23.575871 42.2175459,23.9562534 42.1799974,24.3415334 C42.1081656,25.0680147 41.9285859,25.7716405 41.7473737,26.4736337 C41.606975,27.0205354 41.4388232,27.5658046 41.2347554,28.0914832 C41.0045669,28.6840961 40.7449927,29.2669137 40.4576652,29.8317734 C40.083813,30.5631524 39.6495567,31.260248 39.1238781,31.898572 C38.8822618,32.1924297 38.6161574,32.4683293 38.3843364,32.7670846 C38.1084367,33.1229788 37.7607052,33.3907158 37.4358293,33.6845734 C36.8334211,34.2314751 36.1542835,34.6787917 35.4457601,35.0836622 C34.7600923,35.4754724 34.0401411,35.7840229 33.2924367,36.0305368 C32.841855,36.1790981 32.3733154,36.2558276 31.9113059,36.3554127 C31.5978577,36.422347 31.2876747,36.4109192 30.9758591,36.4125517 C28.4029723,36.4141842 25.831718,36.4141842 23.2604638,36.4141842 L22.920895,36.4141842 C22.8523282,36.1921585 22.8376353,32.0650914 22.8964069,31.7614385 C22.920895,31.7516432 22.9519133,31.7304202 22.9812991,31.7304202 C23.4433085,31.72389 23.7502265,31.4626832 24.0114333,31.1198493 C24.3640624,30.6578398 24.5534374,30.1321612 24.6660828,29.565669 C24.7068963,29.355071 24.7215892,29.1477381 24.7215892,28.9371402 C24.7215892,21.8943523 24.7215892,14.8531971 24.7199567,7.81040924 C24.7199567,7.29289331 24.558335,6.81455839 24.194278,6.4488689 C23.8889926,6.14358348 23.5102428,5.92155771 23.0482333,5.913395 C22.999257,5.91176246 22.9502808,5.89706958 22.881714,5.88400924 C22.8751838,5.76973127 22.863756,5.66198348 22.863756,5.55423568 C22.8621235,4.275955 22.863756,2.99930686 22.8621235,1.72265872 C22.8621235,1.60348312 22.8555933,1.48430753 22.8523282,1.36513194 L33.8883147,1.36513194 Z M30.2722333,31.0480175 C30.3391676,31.0545476 30.4142645,31.0659754 30.4893615,31.0659754 C30.8207676,31.067608 31.1538062,31.067608 31.4852123,31.0659754 C31.5521465,31.0659754 31.6207133,31.0561802 31.6876476,31.0447524 C32.2394469,30.935372 32.6737032,30.6137612 33.0834713,30.2529693 C33.3365154,30.0309436 33.5764991,29.7958574 33.8066876,29.5460785 C34.1838049,29.1363103 34.4907228,28.6824635 34.768255,28.2090263 C35.0033411,27.8074208 35.2155716,27.3878574 35.3951513,26.9601313 C35.5828937,26.5079171 35.7396177,26.04101 35.8702211,25.5708378 C36.0155174,25.0516893 36.0938794,24.5162154 36.1950971,23.9856391 C36.2865194,23.5040391 36.3420259,23.019174 36.4007974,22.534309 C36.4465086,22.149029 36.3926347,21.7555862 36.4709967,21.3686737 C36.519973,21.1303225 36.5183405,20.8821761 36.5314008,20.6372947 C36.5542564,20.2226289 36.5852747,19.8079632 36.5885398,19.3932974 C36.5950699,18.2097042 36.5901723,17.026111 36.5901723,15.8425177 C36.5901723,15.7837462 36.5918049,15.7233422 36.5869072,15.6645706 C36.5509913,15.2090913 36.5101777,14.7552445 36.4775269,14.2997652 C36.4481411,13.886732 36.4301832,13.4736988 36.405695,13.059033 C36.405695,13.0508703 36.4040625,13.0427076 36.4024299,13.0345449 C36.345291,12.6247767 36.288152,12.2150086 36.231013,11.8052404 C36.2065249,11.6387211 36.1934645,11.4689367 36.155916,11.3056825 C36.0922469,11.0167225 35.9926618,10.7359252 35.9469506,10.4453326 C35.866956,9.93597942 35.6661533,9.4690723 35.4522903,9.01032789 C35.2743432,8.62994552 35.0555825,8.25772586 34.8025384,7.92142213 C34.554392,7.59164857 34.2637994,7.28309806 33.9503513,7.01536111 C33.5960896,6.71497331 33.1912191,6.48478483 32.7520652,6.3101028 C32.4402496,6.18602958 32.1186387,6.1174628 31.7937628,6.09297466 C31.3448137,6.06032382 30.8909669,6.08481195 30.4403852,6.08644449 C30.376716,6.08644449 30.3114143,6.106035 30.2542753,6.11583026 C30.2036665,6.45539907 30.2183594,30.8439497 30.2722333,31.0480175 L30.2722333,31.0480175 Z" id="Fill-6"></path>
                <path d="M18.3561432,1.36513194 C18.3577758,2.57484584 18.3594083,3.7829272 18.3594083,4.9926411 L18.3594083,10.7391903 L18.3594083,11.0999821 C16.7709446,11.1097774 15.2183968,11.1032472 13.6380958,11.1032472 C13.6283005,10.9775415 13.6136076,10.8795889 13.6152402,10.7816364 C13.626668,10.3392174 13.5646314,9.90496112 13.5156551,9.46743976 C13.4683114,9.0413462 13.3572985,8.63647569 13.2397554,8.23487026 C13.1238449,7.83652992 12.9034517,7.48063568 12.6716307,7.1345367 C12.4169541,6.75741941 12.0708551,6.48478483 11.6757798,6.28887975 C11.3900849,6.1484811 11.0782693,6.04399839 10.7664537,5.98032924 C10.4040293,5.90686483 10.0301771,5.87584653 9.65959,5.86115365 C9.1665622,5.84156314 8.67190186,5.85625602 8.17887406,5.85625602 L7.90950457,5.85625602 C7.83604016,6.07011907 7.82624491,15.3968337 7.89807677,15.6711008 L8.14132558,15.6711008 C8.49885237,15.6711008 8.85637915,15.6678357 9.21390593,15.6711008 C9.67265034,15.6759984 10.066093,15.5160093 10.4415778,15.256435 C10.8170625,14.9952283 11.065209,14.6377015 11.2823371,14.2556866 C11.3802897,14.0826371 11.4080429,13.8720391 11.4635493,13.6777666 C11.4798747,13.6222601 11.4831398,13.5634886 11.48967,13.5112472 C11.7035331,13.4541082 15.3702232,13.4475781 15.6232673,13.4998194 C15.6771412,13.6859293 15.6950992,22.4804351 15.6363276,22.8346967 C15.5628632,22.8428595 15.4828687,22.8591849 15.4012415,22.8591849 C14.1409188,22.8608174 12.8805961,22.8608174 11.6219059,22.8608174 C11.546809,22.8608174 11.471712,22.8477571 11.372127,22.8379618 C11.3639642,22.748172 11.354169,22.6665449 11.3509039,22.5849178 C11.3345785,21.9825096 11.0994924,21.4715239 10.6962544,21.03237 C10.1950639,20.4871008 9.56000491,20.2422195 8.83189101,20.16549 C8.51844287,20.1328391 8.20989236,20.1148811 7.9029744,20.1246764 C7.83440762,20.3385395 7.82950999,31.4610507 7.90134186,31.7206249 L8.19356694,31.7206249 L10.2881188,31.7206249 C10.8252253,31.7206249 11.2741744,31.5018642 11.664352,31.1508676 C12.2112537,30.6627375 12.5687805,30.0423713 12.8854937,29.3893544 C13.1189473,28.9061219 13.2789364,28.3984012 13.41607,27.8857829 C13.5025948,27.5543768 13.5140226,27.2017476 13.5532036,26.8589137 C13.5646314,26.7511659 13.5548361,26.640153 13.5548361,26.5422005 C13.7654341,26.4703686 18.0214721,26.4540432 18.3153297,26.5144473 C18.3708361,26.7038222 18.3822639,35.9015659 18.3267575,36.1758331 C18.1373826,36.2346046 0.563063866,36.2460324 0.288796747,36.1872609 C0.233290306,35.9848256 0.226760136,31.9997897 0.280634035,31.7712337 C0.538575731,31.7124622 0.796517426,31.6716486 1.04466387,31.5949192 C1.36790726,31.492069 1.6046259,31.2700432 1.81522387,31.0039388 C2.11397913,30.6219239 2.16132285,30.1746073 2.21846184,29.7207605 C2.34090252,28.7542954 2.27233574,27.7845652 2.27396828,26.8164676 C2.28213099,20.9066642 2.28049845,14.9984933 2.27233574,9.09032247 C2.27233574,8.44710077 2.17928082,7.80387908 1.96052014,7.19657331 C1.84624218,6.88312517 1.66502997,6.57947229 1.45116692,6.32316314 C1.26668963,6.10276992 1.0152781,5.92155771 0.70999268,5.85788856 C0.603877426,5.83666551 0.501027256,5.79911704 0.372056408,5.75993602 L0.372056408,1.36513194 L18.3561432,1.36513194 Z" id="Fill-8"></path>
                <path d="M0.16717234,55.5235825 C0.911611664,55.4974619 1.61360489,55.7047948 2.31886319,55.9006998 C3.80774184,56.3121005 5.23621642,56.8769602 6.62714253,57.5463026 C8.32661914,58.3642063 9.93304084,59.3372015 11.4970164,60.3869263 C12.6708144,61.1738117 13.8021663,62.0227338 14.8861744,62.9304273 C15.96855,63.8364883 17.0362327,64.7637724 18.0435114,65.7547256 C20.4906924,68.1610931 22.8382883,70.6605155 24.9393704,73.3803311 C26.3090734,75.1516396 27.6395955,76.9539663 28.8803277,78.8183297 C30.3022721,80.9504301 31.665445,83.1200789 32.9257677,85.3517643 C32.9665813,85.4235962 33.013925,85.4937955 33.0890219,85.6162362 C33.1086124,85.4497169 33.1249379,85.3370715 33.1363657,85.2260586 C33.1935046,84.6399759 33.320843,84.0653209 33.4710369,83.4988287 C33.7550992,82.4295135 34.0261013,81.3569331 34.3477121,80.2990457 C34.6987087,79.1415731 35.1558206,78.0200165 35.6651738,76.9245806 C36.6071508,74.9018606 37.8560457,73.0848409 39.3808403,71.4555636 C40.6493257,70.102186 42.0924931,68.9740992 43.7087101,68.0713033 C45.2530952,67.2076883 46.901963,66.6362985 48.6602111,66.3979473 C49.4601569,66.2901995 50.2601027,66.1661263 51.0649461,66.1187826 C51.8959101,66.0698063 52.7334044,66.095927 53.566001,66.1057222 C53.990462,66.1106199 54.4165556,66.1367405 54.8377515,66.1857168 C55.9544105,66.3179528 57.054744,66.5334483 58.1273244,66.8779148 C60.194123,67.5439921 62.1025651,68.5120897 63.8706085,69.7724124 C65.0019603,70.5805209 66.0794383,71.450666 67.0818193,72.4154985 C69.2041244,74.4594416 71.0995061,76.6927596 72.7451088,79.1399406 C73.5532173,80.3414918 74.3417353,81.5561033 75.0225055,82.8327514 C75.8387766,84.3640762 76.5979089,85.9264193 77.3815292,87.475702 C77.4272404,87.5671243 77.471319,87.6585467 77.5300905,87.7777223 C77.5725367,87.7124206 77.60682,87.6699745 77.6280431,87.6209982 C78.1929028,86.3443501 78.8312268,85.1019854 79.4842438,83.8677833 C80.8245611,81.332445 82.2154872,78.8232274 83.8039509,76.4315528 C84.9255075,74.743504 86.0340038,73.0440273 87.2877963,71.4522985 C88.4028228,70.0352517 89.5602953,68.6492233 90.7340933,67.2778877 C91.6352567,66.2248978 92.5935591,65.2208843 93.5845123,64.247889 C95.1501204,62.706769 96.7385842,61.1917697 98.4674465,59.8318619 C100.000404,58.6270456 101.57091,57.4728381 103.247531,56.4704571 C103.949524,56.0525263 104.631927,55.600312 105.345348,55.2068693 C106.083257,54.7987337 106.845654,54.4379419 107.601521,54.0673547 C107.963946,53.8910402 108.344328,53.770232 108.781849,53.8518592 C108.791645,53.9089981 108.809603,53.9726673 108.811235,54.0363364 C108.812868,54.7089439 108.811235,55.3815514 108.812868,56.0541588 C108.812868,56.1635392 108.798175,56.2484314 108.677367,56.2974076 C107.751715,56.6712598 106.892998,57.1757154 106.026118,57.6638456 C103.448333,59.1119107 101.051761,60.8130199 98.793955,62.7165643 C97.7001516,63.6389507 96.6079808,64.5629697 95.6072323,65.5849412 C93.8800025,67.348087 92.226237,69.178167 90.6655265,71.0947717 C89.0101286,73.1240219 87.5130872,75.264285 86.0715523,77.4420965 C84.6430777,79.6019501 83.3419414,81.8385331 82.1191672,84.1208274 C81.2310641,85.781123 80.4033651,87.4691718 79.6458655,89.191504 C79.0271319,90.5954905 78.548797,92.0500857 78.2435116,93.5585549 C78.1406614,94.0662755 78.0149556,94.5707311 77.8974126,95.0768193 C77.8843522,95.1306932 77.8631292,95.1829345 77.8304783,95.2825196 C77.7815021,95.1829345 77.7504838,95.1274281 77.7292607,95.0686566 C77.3292878,93.9552627 76.9570682,92.8320735 76.5228119,91.7317399 C76.0852905,90.6248762 75.5987929,89.5359705 75.1106627,88.4486972 C74.271536,86.5761711 73.3262939,84.7558864 72.2830993,82.987843 C71.1239943,81.0173643 69.8065326,79.1595311 68.3845881,77.3702646 C67.7478966,76.5686863 67.0981448,75.7818009 66.3814586,75.053687 C65.1929678,73.840708 63.8983617,72.7534348 62.4976403,71.7886023 C61.2748661,70.9462104 59.9965854,70.2034036 58.6187196,69.6450741 C57.265342,69.0965399 55.8744159,68.678609 54.4198206,68.5022945 C53.9055698,68.4402578 53.3929515,68.33251 52.8770681,68.3243473 C52.2077257,68.3145521 51.5334857,68.3569982 50.8657759,68.4222999 C49.695243,68.5382104 48.5524633,68.8026822 47.4292742,69.1585765 C45.4196145,69.795268 43.6352457,70.8205046 42.0549447,72.2130633 C40.8468633,73.2758484 39.8852959,74.5312735 39.0461691,75.8960789 C37.9703236,77.6477969 37.1589501,79.5137928 36.5271562,81.4646809 C36.1761596,82.5519542 35.8545487,83.6457576 35.6406857,84.7673142 C35.4562084,85.7354118 35.3174423,86.7133047 35.1737786,87.689565 C34.8799209,89.6926945 34.8554328,91.7088844 34.8668606,93.7283393 L34.8668606,94.1021915 C34.7329921,94.0728057 34.7231969,93.968323 34.6872809,93.8932261 C34.3281216,93.179805 33.977125,92.4598538 33.613068,91.7480654 C32.3935589,89.3580233 31.0744646,87.0251203 29.6917012,84.7265006 C28.4281134,82.6254186 27.1253446,80.5488247 25.7099304,78.5456952 C24.327167,76.5931745 22.9166504,74.6618768 21.3641026,72.838327 C20.2507087,71.529028 19.0981338,70.255645 17.9080104,69.0116477 C16.2150639,67.2419717 14.388249,65.6241222 12.4667466,64.1140205 C10.67095,62.7035039 8.75924287,61.4595066 6.73978795,60.3852937 C5.58068286,59.7698253 4.4068849,59.1886402 3.18247811,58.7168354 C2.27641709,58.3674714 1.34913302,58.0899392 0.395728272,57.8989317 C0.320631323,57.8842388 0.243901831,57.8809737 0.16717234,57.8744436 L0.16717234,55.5235825 Z" id="Fill-10"></path>
                <path d="M84.8278815,1.36513194 L84.8278815,5.93135297 C84.6874828,5.96563636 84.5748374,6.00644992 84.4605595,6.01951026 C84.0916049,6.05542619 83.8124401,6.25949399 83.556131,6.49621263 C83.4075696,6.63497873 83.2622733,6.78190755 83.1512605,6.95005941 C82.978211,7.20963365 82.9227045,7.5083889 82.9227045,7.82183704 C82.9259696,13.3822764 82.9259696,18.9427157 82.9259696,24.5015225 C82.9259696,26.3495605 82.9194394,28.1975985 82.9276022,30.0440039 C82.9308672,30.6529422 83.1822788,31.1492351 83.7079574,31.474111 C83.9528388,31.6243049 84.2205757,31.7287876 84.5209635,31.72389 C84.7576822,31.7189924 84.7740076,31.7385829 84.7740076,31.9655063 C84.7756401,33.379288 84.7740076,34.7930697 84.7740076,36.2068514 C84.7740076,36.2558276 84.7625798,36.3064365 84.7527845,36.3880636 C84.6385066,36.3962263 84.5242286,36.4125517 84.4099506,36.4125517 C81.8566544,36.4141842 79.3017255,36.4141842 76.7467967,36.4141842 C76.4839574,36.4141842 76.2194855,36.4141842 75.9550137,36.4125517 C75.8733865,36.4109192 75.7917594,36.3994914 75.6938069,36.3929612 L75.6938069,31.8218425 C75.8342055,31.7875592 75.9713391,31.7532758 76.1101052,31.7206249 C77.0292265,31.5067619 77.6414299,30.7541598 77.6414299,29.7925924 C77.6414299,22.4543144 77.6414299,15.1144038 77.6381649,7.77612585 C77.6381649,7.58185331 77.6104116,7.38758077 77.5728632,7.19820585 C77.5516401,7.08392789 77.5075615,6.95985467 77.4340971,6.87332992 C77.0373893,6.41458551 76.5949703,6.02767297 75.9370557,6.02440788 C75.9044048,6.02440788 75.871754,6.01298009 75.8097174,6.00155229 C75.8031872,5.89543704 75.7901269,5.78932178 75.7901269,5.68157398 L75.7901269,1.7487794 C75.7901269,1.61980855 75.7868618,1.49247024 75.7852293,1.36513194 L84.8278815,1.36513194 Z" id="Fill-12"></path>
                <path d="M0.16717234,48.5749924 C0.831617087,48.5717273 1.49442929,48.5733599 2.15887404,48.5635646 C2.31886319,48.5602995 2.38579743,48.637029 2.42824353,48.7741626 C2.53762387,49.1251592 2.70740828,49.4500351 2.93596421,49.7389951 C3.23635201,50.117745 3.62979472,50.3479334 4.11139472,50.3822168 C4.41668015,50.4034399 4.69257981,50.2875294 4.92440083,50.0752989 C5.36845236,49.6720609 5.46150727,49.1512799 5.44191676,48.5864202 C5.42069371,48.0085002 5.123571,47.5709789 4.72196557,47.1971267 C4.30240218,46.8085816 3.81916964,46.5032961 3.3245093,46.2192338 C2.69598048,45.8600744 2.08540963,45.4780595 1.5678937,44.9605436 C1.1287398,44.5197572 0.854472681,43.9908134 0.653669968,43.4161585 C0.415318781,42.7337558 0.376137764,42.0235999 0.4969459,41.3248717 C0.684688273,40.235966 1.16955336,39.3086819 2.19152489,38.7601476 C2.6927154,38.4907782 3.2281893,38.3324215 3.8061093,38.3438493 C4.31546252,38.3552771 4.82808083,38.3111985 5.33090388,38.4303741 C5.36355473,38.4385368 5.412531,38.4466995 5.42885642,38.4303741 C5.5741527,38.2948731 5.75209981,38.3503795 5.91698659,38.3471144 C6.39368897,38.3405843 6.87039134,38.3454819 7.34709372,38.3454819 L7.64258389,38.3454819 C7.65890931,38.4303741 7.68013236,38.4940432 7.68013236,38.5577124 C7.68176491,39.7233477 7.68176491,40.8889829 7.68013236,42.0562507 C7.68013236,42.1133897 7.66707202,42.1721612 7.65890931,42.2472582 C7.58870999,42.258686 7.52340829,42.2782765 7.4581066,42.2782765 C6.88834931,42.2815416 6.31859202,42.2831741 5.74720219,42.2782765 C5.49905575,42.2750114 5.50232083,42.2668487 5.46966998,42.0252324 C5.40763337,41.5713856 5.28845778,41.1436595 4.9423588,40.8089883 C4.45749371,40.3388161 3.76203066,40.3453463 3.32940693,40.8759226 C3.04697709,41.220389 2.9702476,41.5975063 3.00289845,42.0350277 C3.04697709,42.6194778 3.36369032,43.0390412 3.77182591,43.396568 C4.05752083,43.646347 4.38239676,43.856945 4.70727269,44.0561151 C5.32274117,44.4332324 5.96433032,44.7744338 6.51776219,45.2462385 C7.08588694,45.7294711 7.53157101,46.3057585 7.7584944,47.0208121 C7.87277236,47.3832365 7.94133914,47.7668839 7.97235745,48.1456338 C8.03439406,48.9063985 7.96909236,49.6638982 7.66707202,50.3756867 C7.29485236,51.2507294 6.68101643,51.8923185 5.77985304,52.2416826 C5.28845778,52.4310575 4.78236964,52.5159497 4.256691,52.5061545 C3.78978388,52.4963592 3.31961167,52.5306426 2.86086726,52.4098345 C2.72046862,52.3739185 2.58170252,52.3347375 2.42824353,52.293924 C2.39885777,52.3641233 2.36947201,52.4310575 2.33682116,52.5094196 L0.16717234,52.5094196 L0.16717234,48.5749924 Z" id="Fill-14"></path>
                <path d="M21.7301186,47.112561 C21.5635993,47.1288864 21.4134054,47.1435793 21.2403559,47.1599047 C21.2272955,47.2235738 21.2044399,47.287243 21.2044399,47.3509121 C21.2028074,48.1002491 21.2011748,48.8495861 21.207705,49.598923 C21.2093376,49.7246288 21.2354582,49.8535996 21.2746393,49.9727752 C21.379122,50.2943861 21.5472738,50.562123 21.9374515,50.6519128 C21.9439816,51.2608511 21.9439816,51.8681569 21.9358189,52.4656674 C21.7023654,52.5342342 18.3785091,52.5407644 18.1238325,52.4754627 C18.1156698,52.410161 18.1026094,52.3366966 18.1026094,52.2615996 C18.1009769,51.8028552 18.104242,51.3424783 18.0993443,50.8821013 C18.0977118,50.7286423 18.1368928,50.6470152 18.2985145,50.5833461 C18.5989023,50.4609054 18.7262406,50.1784755 18.8013376,49.8829854 C18.8405186,49.7295264 18.8552114,49.5630071 18.8552114,49.4030179 C18.8584765,46.6358586 18.856844,43.8686993 18.856844,41.1015399 C18.856844,40.8844118 18.8405186,40.6738138 18.7050176,40.4942342 C18.5923721,40.3456728 18.4438108,40.2509853 18.2625986,40.2118043 C18.1679111,40.1905813 18.1026094,40.1497677 18.104242,40.045285 C18.1091396,39.5000159 18.1156698,38.9563792 18.1221999,38.4127426 C18.1221999,38.4045799 18.1319952,38.3980497 18.1564833,38.3653989 C18.2152548,38.3588687 18.296882,38.3458084 18.3785091,38.3458084 C19.7498447,38.3441758 21.1211803,38.3392782 22.4925159,38.3474409 C23.0851288,38.350706 23.6091749,38.5384484 24.1022027,38.8959752 C24.9135762,39.4820579 25.3053864,40.2836362 25.4670081,41.2305108 C25.6874013,42.5300145 25.4670081,43.7707467 24.9331667,44.9625026 C24.7127735,45.457163 24.4025904,45.8930518 23.9928223,46.2538437 C23.9487437,46.2930247 23.8981349,46.3256755 23.8377308,46.3713867 C23.9895572,46.7223833 24.1299559,47.0472593 24.268722,47.3737677 C24.5527843,48.0382125 24.8352142,48.7042898 25.117644,49.3703671 C25.2090664,49.5891277 25.289061,49.8144186 25.3935437,50.0266491 C25.5535328,50.3564227 25.8163721,50.5539603 26.1885918,50.5898762 C26.2294054,50.5931413 26.2702189,50.6078342 26.3404183,50.6257922 C26.3567437,51.2428932 26.348581,51.8583617 26.3469484,52.4966857 C26.234303,52.506481 26.1526759,52.5195413 26.0710488,52.5195413 C24.9903057,52.5211739 23.9079301,52.5195413 22.8271871,52.5195413 C22.7929037,52.5195413 22.7586203,52.5179088 22.7243369,52.5195413 C22.5937335,52.5244389 22.5414921,52.4591372 22.5431247,52.3317989 C22.5463898,52.0003928 22.5431247,51.6689867 22.5431247,51.3359481 C22.5431247,51.158001 22.5463898,50.9784213 22.5414921,50.8004742 C22.5398596,50.6861962 22.5725104,50.6159969 22.6900535,50.5653881 C22.9577904,50.4511101 23.0149294,50.3335671 22.9708508,50.0429745 C22.9545254,49.9352267 22.9300372,49.8242139 22.8875911,49.7246288 C22.5398596,48.9197854 22.1872304,48.1165745 21.8346013,47.3149962 C21.8052155,47.2464294 21.7660345,47.1811277 21.7301186,47.112561 M21.2436209,40.3015942 C21.186482,40.5350477 21.186482,44.3715223 21.2436209,44.5853854 C21.2730067,44.5886504 21.3056576,44.5968132 21.3366759,44.5951806 C22.1464169,44.5527345 22.7080115,44.1331711 22.9871762,43.4066898 C23.1618582,42.9479454 23.2026718,42.4647128 23.2157321,41.9798477 C23.2287925,41.4623318 23.0361525,41.0362382 22.6459749,40.698302 C22.2394718,40.3456728 21.7807274,40.180786 21.2436209,40.3015942" id="Fill-16"></path>
                <path d="M92.0820835,52.4326901 C92.0771859,51.8041612 92.0788185,51.1968555 92.080451,50.5911823 C92.580009,50.4311931 92.7497934,50.060606 92.8052998,49.6116568 C92.8232578,49.4777884 92.8281554,49.3406548 92.8281554,49.2051538 C92.829788,46.5228867 92.829788,43.8422521 92.8281554,41.1616175 C92.8281554,41.0261165 92.8281554,40.8889829 92.8085649,40.7551144 C92.7628537,40.4465639 92.5832741,40.2490263 92.2877839,40.1543388 C92.2241147,40.1331158 92.1620781,40.1086277 92.0918788,40.0841395 L92.0918788,38.3209937 C92.1751385,38.312831 92.2469703,38.2981382 92.3204347,38.2981382 C93.7848252,38.2981382 95.2475832,38.2932405 96.7119737,38.3014032 C97.1756158,38.3030358 97.5951792,38.4613924 97.9625012,38.7487199 C98.1371832,38.8842209 98.3102327,39.0213544 98.476752,39.1666507 C98.9975331,39.6204975 99.2391493,40.2294358 99.379548,40.8759226 C99.7125866,42.394187 99.4562775,43.8324568 98.744489,45.2005273 C98.5616442,45.5498914 98.320028,45.8584419 98.0278029,46.1229138 C97.9576036,46.1849504 97.8727114,46.2306616 97.8008795,46.2796378 C98.0212727,46.7922561 98.2204429,47.2428378 98.4098178,47.6966846 C98.6742897,48.3235809 98.9305988,48.9521097 99.1918056,49.5806385 C99.244047,49.7063443 99.2995534,49.8304175 99.36159,49.9512256 C99.5509649,50.3250779 99.861148,50.5177179 100.298669,50.5340433 C100.308465,50.6189355 100.323157,50.6923999 100.32479,50.7658643 C100.326423,51.2409341 100.326423,51.7176365 100.32479,52.1943389 C100.323157,52.4359551 100.310097,52.450648 100.058686,52.450648 C98.9697798,52.4522806 97.8808741,52.4522806 96.7903358,52.450648 C96.7087086,52.450648 96.6270815,52.4359551 96.5389242,52.4277924 C96.529129,52.3477979 96.5160686,52.2890263 96.5160686,52.2302548 C96.5144361,51.737227 96.5177012,51.2441992 96.5128036,50.7495389 C96.511171,50.6124053 96.5487195,50.5373084 96.685853,50.485067 C96.914409,50.3969097 96.9846083,50.2663063 96.9486924,50.0230575 C96.9274693,49.8744962 96.8915534,49.7210372 96.8327819,49.5839036 C96.5062734,48.8247714 96.1716022,48.0705368 95.8385636,47.3146697 C95.8026476,47.2297775 95.7602015,47.1481504 95.7079602,47.03877 C95.5332781,47.0550955 95.3602286,47.0714209 95.1741188,47.0877463 C95.1692212,47.1987592 95.1610585,47.2836514 95.1610585,47.3669111 C95.1610585,48.0476812 95.1610585,48.7284514 95.1643236,49.4092216 C95.1659561,49.7243023 95.2394205,50.021425 95.4369581,50.2695714 C95.5185852,50.370789 95.6295981,50.4703741 95.7471412,50.5160853 C95.8875398,50.5715918 95.9218232,50.6483212 95.9201907,50.7821897 C95.915293,51.2507294 95.9201907,51.719269 95.9169256,52.1861762 C95.915293,52.4359551 95.9038653,52.4490155 95.6589839,52.450648 C95.1986069,52.4539131 94.7398625,52.4522806 94.2794856,52.4522806 L92.3906341,52.4522806 C92.2992117,52.450648 92.2077893,52.4408528 92.0820835,52.4326901 L92.0820835,52.4326901 Z M95.180649,44.5099619 C95.2312578,44.5164921 95.2639086,44.5262873 95.2965595,44.5246548 C96.0622219,44.4871063 96.6515697,44.1001938 96.9437947,43.3688148 C97.1168442,42.9345585 97.1707181,42.4807117 97.185411,42.0203348 C97.1903086,41.8113694 97.1756158,41.5926087 97.1184768,41.391806 C96.9421622,40.7877653 96.4997432,40.428606 95.9250883,40.235966 C95.6883697,40.1559714 95.4271629,40.1837246 95.180649,40.2310683 L95.180649,44.5099619 Z" id="Fill-18"></path>
                <path d="M51.9168067,38.4434344 C51.9249694,38.5266941 51.9347646,38.5919958 51.9363972,38.65893 C51.9380297,39.1274697 51.9314996,39.5960093 51.9396623,40.064549 C51.9412948,40.2131104 51.8955836,40.2947375 51.7502873,40.3502439 C51.448267,40.4628893 51.3176636,40.7143009 51.2654223,41.0163212 C51.2605246,41.0424419 51.2621572,41.0685626 51.2621572,41.0930507 C51.2539945,42.2162399 51.2409341,43.339429 51.237669,44.4626182 C51.2327714,45.6804948 51.2425667,46.8983714 51.234404,48.116248 C51.2311389,48.9096636 51.1478792,49.6916514 50.909528,50.4556812 C50.7201531,51.0613545 50.3838494,51.5543823 49.889189,51.9461924 C49.5381924,52.2220921 49.1725029,52.4669735 48.7153911,52.5290101 C48.5815226,52.546968 48.4460216,52.5665585 48.3105206,52.5681911 C47.8419809,52.5730887 47.3734412,52.5616609 46.9049016,52.5730887 C46.1980107,52.5894141 45.6347836,52.2873938 45.1074724,51.8433423 C44.474046,51.3095009 44.2210019,50.5928148 44.049585,49.828785 C43.992446,49.5724758 43.9679578,49.308004 43.9516324,49.0451646 C43.7916433,46.4102412 43.8814331,43.7704202 43.8520473,41.1338643 C43.8504148,40.9836704 43.8226616,40.8285788 43.7704202,40.6881802 C43.703486,40.506968 43.5696175,40.371467 43.3655497,40.335551 C43.2529043,40.314328 43.2071931,40.2506588 43.2088256,40.1412785 C43.2104582,39.6139673 43.2088256,39.0850236 43.2120907,38.5577124 C43.2120907,38.5185314 43.2333138,38.4793504 43.2480066,38.4287415 L46.8689856,38.4287415 C46.8787809,38.523429 46.8967389,38.6050561 46.8967389,38.6866832 C46.8983714,39.1552229 46.8934738,39.6237626 46.8983714,40.0923022 C46.8983714,40.2245382 46.8444975,40.2865748 46.7204243,40.3290209 C46.361265,40.4530941 46.2045409,40.720831 46.2012758,41.0930507 C46.1914806,42.0627809 46.1735226,43.0325111 46.168625,44.0022412 C46.1637273,45.3556189 46.1637273,46.7089965 46.1702575,48.0623741 C46.17189,48.6451917 46.3318792,49.1888284 46.6551226,49.675326 C46.8347022,49.9446955 47.0975416,50.1193775 47.3995619,50.2336555 C47.5285328,50.2826318 47.652606,50.253246 47.770149,50.2010046 C48.2631768,49.9789789 48.5717273,49.600229 48.7562046,49.0941409 C48.9423145,48.5880528 48.9668026,48.0672717 48.9668026,47.5366955 C48.961905,45.4176555 48.9635375,43.2969829 48.9635375,41.1779429 C48.9635375,41.1012134 48.9668026,41.0244839 48.9602724,40.9477544 C48.9374168,40.6489992 48.8100785,40.4220758 48.5047931,40.3420812 C48.3594968,40.3045327 48.3137856,40.2261707 48.3137856,40.0890371 C48.3170507,39.6041721 48.3121531,39.1176744 48.3170507,38.6328093 C48.3203158,38.4385368 48.3464365,38.4140487 48.5456067,38.4124161 C49.6018616,38.4107836 50.656484,38.4107836 51.7127389,38.4124161 C51.7780406,38.4124161 51.8433423,38.4320066 51.9168067,38.4434344" id="Fill-20"></path>
                <path d="M82.8345472,45.457816 C82.824752,44.1599448 82.9455601,42.9175801 83.249213,41.6964384 C83.4891967,40.7299733 83.9495737,39.892479 84.7038083,39.2280343 C85.2490774,38.7480668 85.8694435,38.4493116 86.6073527,38.3905401 C87.0171208,38.3562567 87.4219913,38.3611543 87.8284944,38.408498 C88.486409,38.4852275 89.0414734,38.7839828 89.5312361,39.214974 C90.2642476,39.8581957 90.7262571,40.6663041 90.9744035,41.6033835 C91.2454056,42.6204574 91.3694788,43.6571218 91.4021296,44.7068465 C91.4413107,45.9606391 91.397232,47.209534 91.1605134,48.4453686 C91.0592957,48.9808425 90.9401201,49.5130513 90.7164618,50.0142418 C90.3262842,50.8941821 89.7434666,51.6059706 88.9043398,52.0957333 C88.4194747,52.3797957 87.8872659,52.4826459 87.3387317,52.4957062 C86.9991628,52.5038689 86.656329,52.4875435 86.3216578,52.4401998 C85.6947615,52.3520425 85.1674503,52.0483896 84.6989106,51.6337238 C83.8810069,50.9105075 83.4271601,49.9881211 83.192074,48.9383964 C82.9324998,47.7792913 82.8214869,46.6038608 82.8345472,45.457816 M85.3029513,45.3892492 C85.3029513,45.6276004 85.2980537,45.8659516 85.3045839,46.1043028 C85.3176442,46.5793726 85.3078489,47.0577075 85.3600903,47.5295123 C85.4368198,48.2315055 85.6490503,48.8926852 86.1290178,49.4395869 C86.4294056,49.7824208 86.7983601,49.9750608 87.2603696,49.8705781 C87.8317595,49.7432397 88.2611181,49.4085686 88.5108971,48.8747272 C88.8080198,48.2413008 88.9402557,47.5686933 88.9435208,46.8699652 C88.9484184,45.9688018 88.9549486,45.0676384 88.9418883,44.1648424 C88.9353581,43.7762974 88.9092374,43.3828546 88.8488334,42.9975746 C88.7525134,42.3951665 88.5353852,41.8352045 88.1370449,41.3568696 C87.7011561,40.834456 87.1183384,40.7348709 86.5469486,41.0940302 C86.138813,41.3503394 85.8367927,41.6964384 85.6506828,42.1421224 C85.425392,42.682494 85.3192767,43.2506187 85.3062164,43.8318038 C85.2931561,44.3509523 85.3029513,44.8701008 85.3029513,45.3892492" id="Fill-22"></path>
                <path d="M13.4621077,38.3627868 L16.9165674,38.3627868 C16.9279952,38.4509441 16.9443206,38.5244085 16.9443206,38.5962404 C16.9459531,39.0566173 16.9410555,39.5169943 16.9475857,39.9757387 C16.9508508,40.1324628 16.900242,40.2222526 16.7533131,40.2891868 C16.5296548,40.392037 16.4088467,40.5863096 16.3712982,40.8279258 C16.3566053,40.9193482 16.3517077,41.0140357 16.3517077,41.1070906 C16.3419125,43.3795896 16.3353823,45.6520886 16.3223219,47.9245875 C16.3190569,48.5286282 16.2929362,49.1326689 16.1623328,49.7252818 C16.0823382,50.0877062 15.9778555,50.4484981 15.861945,50.8027598 C15.7215464,51.2353835 15.4146284,51.5553618 15.091385,51.8639123 C14.666924,52.2704154 14.167366,52.5006038 13.5796508,52.507134 C13.011526,52.5120316 12.4417687,52.4957062 11.8720114,52.4761157 C11.3185796,52.4581577 10.9039138,52.1479747 10.5153687,51.7920804 C10.0125457,51.3300709 9.75297142,50.7488859 9.60114498,50.0926038 C9.41993278,49.3155136 9.36442633,48.5286282 9.35789616,47.7384777 C9.3399382,45.4659787 9.33504057,43.1934797 9.32524532,40.9209807 C9.32361278,40.6042675 9.20933481,40.3577536 8.88282633,40.256536 C8.79793413,40.2304153 8.75222294,40.178174 8.75222294,40.0900167 C8.7505904,39.5627055 8.75222294,39.0353943 8.7505904,38.5080831 C8.7505904,38.4052329 8.79956667,38.348094 8.90568193,38.348094 C8.95629074,38.348094 9.00689955,38.3448289 9.05914091,38.3448289 L12.0205728,38.3448289 C12.0711816,38.3448289 12.123423,38.348094 12.1740318,38.3464614 C12.2932074,38.3464614 12.3421836,38.408498 12.3405511,38.522776 L12.3405511,38.5472641 C12.3405511,39.0419245 12.3389185,39.5349523 12.3421836,40.0279801 C12.3421836,40.1471557 12.3013701,40.217355 12.1870921,40.2581685 C11.8524209,40.3773441 11.7430406,40.6548763 11.6989619,40.9748546 C11.6940643,41.009138 11.6973294,41.0434214 11.6973294,41.0777048 C11.6875341,43.417138 11.6793714,45.7582038 11.6728413,48.097637 C11.6712087,48.3784343 11.6695762,48.6608642 11.6989619,48.9400289 C11.7218175,49.1473618 11.777324,49.3579597 11.8507884,49.5554974 C12.0009823,49.9587353 12.3030026,50.1889238 12.7339938,50.2215747 C13.1927382,50.2574906 13.5404697,50.0566879 13.7869836,49.6763055 C13.953503,49.4216289 13.9665633,49.1310364 13.9796236,48.8404438 C14.0873714,46.5532519 14.0041118,44.262795 14.0285999,41.9739706 C14.031865,41.6588899 14.0302325,41.3438092 14.0285999,41.0287285 C14.0269674,40.6712018 13.9290148,40.370814 13.5453674,40.2500058 C13.4245592,40.2108248 13.435987,40.1112397 13.435987,40.0198173 C13.435987,39.5349523 13.435987,39.0500872 13.4376196,38.5635895 C13.4376196,38.5064506 13.4506799,38.4493116 13.4621077,38.3627868" id="Fill-24"></path>
                <path d="M101.599153,38.3138106 L108.793767,38.3138106 L108.793767,42.1976289 C108.717037,42.2090567 108.645205,42.2286472 108.573374,42.2286472 C108.104834,42.2319123 107.636294,42.2319123 107.167755,42.2302797 C106.921241,42.2270146 106.921241,42.2123218 106.900018,41.9690729 C106.87553,41.7078662 106.851041,41.4417618 106.784107,41.1887177 C106.611058,40.5193753 106.237205,40.1928668 105.548273,40.1226675 C105.247885,40.0900167 104.940967,40.1161373 104.643844,40.1161373 C104.580175,40.3397957 104.575277,43.7909902 104.632416,44.0244438 C105.349102,44.1860655 105.82254,43.9117984 106.020077,43.3322458 C106.049463,43.2457211 106.075584,43.1689916 106.184964,43.1689916 C106.677992,43.1738892 107.17102,43.1771543 107.664048,43.1820519 C107.67874,43.1820519 107.693433,43.1967448 107.708126,43.2049075 C107.763633,43.3926499 107.779958,46.5989631 107.727717,46.9189414 C107.546504,46.9875082 106.348218,47.0022011 106.007017,46.9368994 C105.985794,46.5728425 105.840498,46.2577618 105.510724,46.0569591 C105.246252,45.8969699 104.95566,45.8561563 104.625886,45.8806445 C104.614458,45.9606391 104.5965,46.0324709 104.5965,46.1043028 C104.594868,47.5082892 104.594868,48.9139082 104.5965,50.3195272 C104.5965,50.3766662 104.607928,50.4354377 104.616091,50.5170648 C104.69282,50.5268601 104.764652,50.5431855 104.838117,50.5448181 C105.060142,50.5480831 105.280536,50.5448181 105.502561,50.5464506 C105.763768,50.5497157 105.985794,50.4550282 106.165374,50.2672859 C106.59963,49.8118065 106.802065,49.250212 106.885325,48.6380086 C106.893488,48.5808696 106.900018,48.5220981 106.906548,48.4682242 C107.113881,48.4094526 108.506439,48.4012899 108.764381,48.4551638 C108.823153,48.636376 108.842743,51.9896181 108.782339,52.3504099 C108.708875,52.3585726 108.627248,52.3732655 108.547253,52.3732655 C106.291079,52.3748981 104.034906,52.3748981 101.7771,52.3732655 C101.703635,52.3732655 101.630171,52.3602052 101.520791,52.3487774 C101.504465,51.754532 101.51426,51.1717143 101.512628,50.5856316 C101.622008,50.5546133 101.702003,50.5317577 101.781997,50.5072696 C102.028511,50.427275 102.195031,50.2623882 102.25217,50.0126092 C102.296248,49.8150716 102.328899,49.6093713 102.328899,49.406936 C102.335429,46.7769102 102.335429,44.1452519 102.327266,41.5152262 C102.327266,41.2458567 102.27829,40.9715896 102.212989,40.7103828 C102.141157,40.431218 101.98933,40.1928668 101.685677,40.103077 C101.59752,40.0769563 101.559972,40.0198173 101.559972,39.9349251 C101.561604,39.4157767 101.564869,38.8966282 101.568134,38.3774797 C101.568134,38.3627868 101.582827,38.348094 101.599153,38.3138106" id="Fill-26"></path>
                <path d="M72.8368577,38.3451554 L72.8368577,42.2224435 C72.6131994,42.3008056 70.9904523,42.3089683 70.6819018,42.2371364 C70.6459858,42.0428639 70.6149675,41.8420611 70.5708889,41.6445235 C70.4941594,41.3049547 70.3374353,41.007832 70.074596,40.7711133 C69.5832008,40.3270618 68.9595696,40.3646103 68.5171506,40.8592706 C68.1579913,41.2608761 68.0943221,41.7245181 68.1988048,42.2355039 C68.2592089,42.5260964 68.3832821,42.7791405 68.5710245,43.0076964 C68.9350814,43.4468503 69.3775004,43.779889 69.8721608,44.0606862 C70.4794665,44.4035201 71.0867723,44.7479866 71.6287764,45.1936707 C72.232817,45.6915961 72.6915614,46.2972693 72.9397079,47.0417086 C73.0343953,47.3290361 73.0947994,47.635954 73.1225526,47.9396069 C73.1829567,48.6203771 73.1862218,49.3044124 72.9837865,49.965592 C72.6442177,51.0675581 71.9716103,51.8740341 70.8565838,52.2740069 C70.4108997,52.4339961 69.9554204,52.5123581 69.4819831,52.5041954 C69.0052808,52.4960327 68.5269458,52.5352137 68.0584062,52.4144056 C67.9196401,52.3801222 67.7792414,52.3425737 67.6208848,52.3017602 C67.5604808,52.5139907 67.4021241,52.5286836 67.2111167,52.5237859 C66.7017635,52.5123581 66.1907777,52.5205208 65.6797919,52.5205208 C65.5883696,52.5188883 65.4969472,52.5107256 65.412055,52.5074605 C65.3500184,52.3033927 65.333693,48.9223974 65.394097,48.5909913 C65.4659289,48.5828286 65.5459235,48.5665032 65.6275506,48.5665032 C66.1809824,48.5648707 66.7344143,48.5648707 67.2878462,48.5665032 C67.5245648,48.5665032 67.5294624,48.5746659 67.6110896,48.8048544 C67.7792414,49.2864544 68.0110625,49.7256083 68.4224631,50.0472191 C68.7130557,50.2741425 69.0444618,50.4047459 69.4150489,50.3769927 C69.8835886,50.3410768 70.1970367,50.0602795 70.4141648,49.6701019 C70.7178177,49.1232002 70.727613,48.1224517 70.1725486,47.4890252 C69.7954313,47.0596666 69.3383194,46.7429534 68.8648821,46.440933 C68.4061377,46.1487079 67.9359655,45.8728083 67.4788536,45.5773181 C66.489533,44.9373615 65.8871248,44.0182401 65.6846896,42.8705628 C65.5100075,41.8796096 65.6128577,40.9066144 66.1222109,40.0038184 C66.4683099,39.38835 66.9466448,38.9296055 67.5947641,38.6455432 C68.069834,38.4382103 68.5612292,38.32883 69.0820103,38.3435228 C69.5570801,38.3549506 70.035415,38.3206672 70.5055872,38.4300476 C70.5366055,38.4382103 70.5839492,38.4447405 70.6019072,38.428415 C70.7504686,38.2978116 70.9267831,38.350053 71.0916699,38.3467879 C71.5683723,38.3418903 72.0450747,38.3451554 72.521777,38.3451554 L72.8368577,38.3451554 Z" id="Fill-28"></path>
                <path d="M60.0073602,42.2730523 C59.2727161,42.2959079 58.5707229,42.2861127 57.8507717,42.2714198 C57.8344463,42.1734673 57.8230185,42.1000028 57.8132232,42.028171 C57.7626144,41.642891 57.6744571,41.2739364 57.4263107,40.9621208 C57.285912,40.7874388 57.1193927,40.643775 56.9104273,40.5523527 C56.5071893,40.3776706 56.0680354,40.4641954 55.7611175,40.7792761 C55.356247,41.1906767 55.2550293,41.6788069 55.3709398,42.2322388 C55.434609,42.530994 55.5635798,42.7922008 55.7594849,43.0256544 C56.1202768,43.455013 56.5577981,43.7847866 57.0442958,44.0590537 C57.6728246,44.4149479 58.3046185,44.7724747 58.8596829,45.2426469 C59.4294402,45.7242469 59.8636965,46.3070646 60.1036802,47.0172205 C60.19347,47.2816924 60.2473439,47.5624896 60.2799948,47.8383893 C60.3681521,48.5795635 60.364887,49.3223703 60.1346985,50.0390564 C59.7526836,51.2226497 58.9739609,52.0258605 57.7609819,52.3588991 C57.4605941,52.4421588 57.1422483,52.48787 56.8304327,52.4960327 C56.2965914,52.5107256 55.7578524,52.5466415 55.2289086,52.4144056 C55.0901425,52.3784897 54.9497439,52.3425737 54.7913873,52.3017602 C54.742411,52.5156232 54.5873195,52.5254185 54.4077398,52.5237859 C53.8885914,52.5156232 53.3678103,52.5205208 52.8486619,52.5188883 C52.7572395,52.5188883 52.6658171,52.509093 52.5825575,52.5041954 C52.5221534,52.2886998 52.5123581,48.8766863 52.5711297,48.5893588 C52.6445941,48.5811961 52.7262212,48.5665032 52.8078483,48.5665032 C53.3514849,48.5648707 53.8967541,48.5648707 54.4420232,48.5665032 C54.6999649,48.5665032 54.6999649,48.5697683 54.7864897,48.8130171 C54.953009,49.2831893 55.1799324,49.7190781 55.5815378,50.0357913 C55.8851907,50.2757751 56.2296571,50.4112761 56.6230998,50.3720951 C57.0802117,50.3247513 57.4050876,50.0537493 57.5846673,49.6586741 C57.9323988,48.8962768 57.8801575,48.1567351 57.3348883,47.4841276 C56.9806266,47.0466062 56.515352,46.7462185 56.0500775,46.4474632 C55.5831703,46.1503405 55.1048354,45.8728083 54.6428259,45.5707879 C53.661668,44.9340964 53.0625249,44.0215052 52.8600897,42.8819906 C52.6837751,41.8910374 52.7833602,40.9180422 53.2910808,40.0136137 C53.8902239,38.9442984 54.8240381,38.4235174 56.0157941,38.3533181 C56.5659609,38.3190347 57.1226578,38.3043418 57.6695595,38.428415 C57.7022104,38.4349452 57.7495541,38.446373 57.767512,38.4300476 C57.9307663,38.2896489 58.1266714,38.3516855 58.306251,38.3484205 C58.7747907,38.3402577 59.2433304,38.3451554 59.71187,38.3451554 C59.8032924,38.3467879 59.8947148,38.3533181 60.0073602,38.3598483 L60.0073602,42.2730523 Z" id="Fill-30"></path>
                <path d="M31.2824505,50.6342814 L31.2824505,52.4643614 C31.0832804,52.5329282 27.7790146,52.5459885 27.4818919,52.4790543 C27.4753617,52.4055899 27.4590363,52.3223302 27.4590363,52.2407031 C27.4574037,51.7901214 27.4606688,51.3379071 27.4557712,50.8873254 C27.4557712,50.7387641 27.4818919,50.6457092 27.6467787,50.5787749 C27.7855448,50.5232685 27.9063529,50.3877675 27.9945102,50.2587966 C28.1626621,50.0139153 28.2100058,49.7265878 28.2083732,49.4310976 C28.2083732,48.5625851 28.2100058,47.6940726 28.2100058,46.82556 C28.2083732,44.9024251 28.2051082,42.9776576 28.2100058,41.0528902 C28.2116383,40.6072061 27.9961427,40.2921254 27.6190254,40.2137634 C27.5096451,40.1909078 27.4590363,40.1337688 27.4590363,40.0211234 C27.4623014,39.5019749 27.4623014,38.9828264 27.4655665,38.463678 C27.4655665,38.4391898 27.4802593,38.4163342 27.4982173,38.3657254 C27.5700492,38.3591952 27.6516763,38.3461349 27.7333034,38.3461349 C29.104639,38.3445024 30.4743421,38.3412373 31.8456777,38.3477674 C32.4497183,38.3494 32.9819272,38.5371424 33.4765875,38.9109946 C34.3499977,39.5721742 34.8022119,40.4374217 34.8871041,41.5148997 C34.9703638,42.5597268 34.8152722,43.5735356 34.4283597,44.5416332 C34.1198092,45.3138258 33.6055583,45.9260292 32.8627516,46.3308997 C32.5280804,46.5121119 32.165656,46.6051668 31.7983339,46.6769987 C31.4995787,46.7357702 31.1926607,46.7553607 30.8890078,46.7896441 C30.7894227,46.8010719 30.6898377,46.807602 30.5722946,46.8173973 C30.5641319,46.92188 30.5527041,47.0051397 30.5510716,47.0867668 C30.5510716,47.8785498 30.5527041,48.6703329 30.5527041,49.462116 C30.5527041,49.7216902 30.6016804,49.9698366 30.7257536,50.2000251 C30.8432966,50.4204183 31.0049183,50.5869377 31.2824505,50.6342814 L31.2824505,50.6342814 Z M30.5624994,44.4861268 C31.4195841,44.531838 32.069336,44.0388102 32.340338,43.3123288 C32.4807366,42.9417417 32.5231827,42.5548292 32.5623638,42.1646515 C32.6358282,41.4006217 32.3142173,40.8504549 31.6742607,40.4635424 C31.3297943,40.2545769 30.9608397,40.2251912 30.5624994,40.3019207 L30.5624994,44.4861268 Z" id="Fill-32"></path>
                <path d="M77.192644,40.274494 C76.9134793,40.3234702 76.7241044,40.4557062 76.5706454,40.641816 C76.3453545,40.9144506 76.2441369,41.237694 76.1967932,41.5788953 C76.1641423,41.8041862 76.1461844,42.0327421 76.1216962,42.2531353 C75.9290562,42.3102743 74.5560881,42.3233346 74.2622305,42.2743584 C74.1952962,42.086616 74.1822359,38.6550119 74.2475376,38.3889075 C74.4369125,38.3350336 81.9531376,38.3219733 82.2225071,38.3774797 C82.2861763,38.5733848 82.2927064,42.0213143 82.2257722,42.2825211 L80.3532461,42.2825211 C80.3450834,42.1796709 80.3369207,42.0800858 80.3303905,41.9821333 C80.2993722,41.5184912 80.2291729,41.0679096 79.9402129,40.680997 C79.7916515,40.4801943 79.6463552,40.3806092 79.3769857,40.3120424 C79.368823,40.4214228 79.3557627,40.5259055 79.3557627,40.6303882 C79.3541301,42.9551285 79.3541301,45.2782363 79.3541301,47.6029767 L79.3541301,49.7987462 C79.3557627,50.2966716 79.4716732,50.4582933 79.9500081,50.6133848 C80.0463281,50.6444031 80.0953044,50.6933794 80.0953044,50.791332 L80.0953044,52.2981686 C80.0953044,52.4059164 80.0316352,52.4483625 79.9320501,52.449995 C79.8716461,52.4516276 79.8128746,52.4516276 79.7524705,52.4516276 C78.7484569,52.4532601 77.7444434,52.4532601 76.7404298,52.4516276 C76.6881884,52.4516276 76.6375796,52.449995 76.5869708,52.4516276 C76.4612651,52.4532601 76.3992284,52.3993862 76.3992284,52.2687828 C76.4024935,51.7839177 76.400861,51.2974201 76.3992284,50.812555 C76.3992284,50.7129699 76.4433071,50.6541984 76.5379945,50.6264452 C76.5886034,50.6133848 76.6375796,50.598692 76.6849234,50.580734 C77.0130644,50.4517631 77.1779512,50.2052492 77.2008068,49.8591503 C77.2057044,49.7987462 77.2024393,49.7399747 77.2024393,49.6795706 L77.2024393,40.5879421 C77.2024393,40.4899896 77.1959091,40.392037 77.192644,40.274494" id="Fill-34"></path>
                <path d="M40.8538832,48.5873997 C40.8881666,48.5808696 40.9289802,48.5678092 40.9697938,48.5678092 C41.5232256,48.5645442 42.0766575,48.5612791 42.6300894,48.5645442 C42.8161992,48.5661767 42.8390548,48.5922974 42.8406873,48.7996303 C42.8439524,49.3008208 42.8423199,49.8036438 42.8423199,50.3064669 C42.8423199,50.9529537 42.8439524,51.5994404 42.8423199,52.2475598 C42.8406873,52.507134 42.827627,52.5201943 42.5647877,52.5201943 L35.6950493,52.5201943 C35.43221,52.5201943 35.4175171,52.5055015 35.4158846,52.2475598 C35.414252,51.8133035 35.4191497,51.3790472 35.414252,50.9447909 C35.4126195,50.7978621 35.4518005,50.7064398 35.6101571,50.6705238 C35.8207551,50.6264452 35.9399307,50.4697211 36.0150276,50.2787136 C36.1619565,49.9097591 36.2125653,49.521214 36.2174629,49.1294038 C36.2288907,48.4486336 36.2190954,47.7678635 36.220728,47.0870933 C36.2256256,45.2815014 36.2354209,43.4775421 36.2305232,41.6735828 C36.2288907,41.3960506 36.181547,41.1136207 36.1162453,40.8442512 C36.0525761,40.5699841 35.895852,40.3463258 35.6052595,40.2549034 C35.5268975,40.2287828 35.4664934,40.1896018 35.4664934,40.0965468 L35.4664934,38.4395163 C35.5693436,38.4280885 35.6509707,38.4133956 35.7309653,38.4117631 C36.8459917,38.4101306 37.9626507,38.4101306 39.0776771,38.4117631 C39.3454141,38.4117631 39.3535768,38.4215584 39.3552093,38.6811326 C39.3568419,39.1153889 39.3519443,39.5496451 39.3568419,39.9839014 C39.360107,40.1275651 39.3290887,40.2206201 39.1739971,40.2712289 C38.917688,40.3544885 38.7723917,40.563454 38.7103551,40.8099679 C38.6450534,41.0630119 38.5911795,41.3274838 38.589547,41.587058 C38.5813843,44.5240018 38.5846493,47.4609455 38.5862819,50.3978892 C38.5862819,50.4729862 38.5928121,50.5497157 38.5960771,50.6068547 C38.6221978,50.6346079 38.6336256,50.6574635 38.6450534,50.6574635 C38.9666643,50.6639937 39.2915402,50.698277 39.6082534,50.6639937 C39.9461897,50.6264452 40.1567877,50.370136 40.3282046,50.0975014 C40.5796161,49.695896 40.7445029,49.2616397 40.7902141,48.7865699 C40.7951117,48.7359611 40.8065395,48.6853523 40.8179673,48.636376 C40.8212324,48.6216831 40.8375578,48.6086228 40.8538832,48.5873997" id="Fill-36"></path>
            </g>
        </g>
    </g>
</svg>