<?xml version="1.0" encoding="UTF-8" standalone="no"?>
<svg width="128px" height="128px" viewBox="0 0 128 128" version="1.1" xmlns="http://www.w3.org/2000/svg" xmlns:xlink="http://www.w3.org/1999/xlink" xmlns:sketch="http://www.bohemiancoding.com/sketch/ns">
    <!-- Generator: Sketch 3.3.2 (12043) - http://www.bohemiancoding.com/sketch -->
    <title>Slice 1</title>
    <desc>Created with Sketch.</desc>
    <defs></defs>
    <g id="Page-1" stroke="none" stroke-width="1" fill="none" fill-rule="evenodd" sketch:type="MSPage">
        <g id="facebook" sketch:type="MSLayerGroup" transform="translate(35.900000, 8.000000)" fill="#000000">
            <path d="M37.3333333,37.3333333 L37.3333333,26.2208333 C37.3333333,21.2041667 38.4416667,18.6666667 46.2291667,18.6666667 L56,18.6666667 L56,0 L39.6958333,0 C19.7166667,0 13.125,9.15833333 13.125,24.8791667 L13.125,37.3333333 L1.18423789e-15,37.3333333 L1.18423789e-15,56 L13.125,56 L13.125,112 L37.3333333,112 L37.3333333,56 L53.7833333,56 L56,37.3333333 L37.3333333,37.3333333 L37.3333333,37.3333333 Z M49.6416667,51.3333333 L37.6541667,51.3333333 L32.6666667,51.3333333 L32.6666667,55.8541667 L32.6666667,107.333333 L17.7916667,107.333333 L17.7916667,55.8541667 L17.7916667,51.3333333 L13.4458333,51.3333333 L4.66666667,51.3333333 L4.66666667,42 L13.4458333,42 L17.7916667,42 L17.7916667,37.1875 L17.7916667,24.8791667 C17.7916667,17.7333333 19.3666667,12.8625 22.3125,9.77083333 C25.5791667,6.27083333 31.3833333,4.66666667 39.6958333,4.66666667 L51.3333333,4.66666667 L51.3333333,14 L46.2291667,14 C42.7291667,14 38.2083333,14.3208333 35.4083333,17.4125 C33.0458333,20.0375 32.6666667,23.275 32.6666667,26.1916667 L32.6666667,37.1583333 L32.6666667,42 L37.6541667,42 L50.75,42 L49.6416667,51.3333333 L49.6416667,51.3333333 Z" id="Shape" sketch:type="MSShapeGroup"></path>
        </g>
    </g>
</svg>