<?xml version="1.0" encoding="UTF-8" standalone="no"?>
<svg width="128px" height="128px" viewBox="0 0 128 128" version="1.1" xmlns="http://www.w3.org/2000/svg" xmlns:xlink="http://www.w3.org/1999/xlink" xmlns:sketch="http://www.bohemiancoding.com/sketch/ns">
    <!-- Generator: Sketch 3.3.2 (12043) - http://www.bohemiancoding.com/sketch -->
    <title>Slice 1</title>
    <desc>Created with Sketch.</desc>
    <defs></defs>
    <g id="Page-1" stroke="none" stroke-width="1" fill="none" fill-rule="evenodd" sketch:type="MSPage">
        <g id="google-plus" sketch:type="MSLayerGroup" transform="translate(8.000000, 16.000000)" fill="#000000">
            <path d="M48.370237,4.48974706 C51.2972544,6.87104936 57.3993416,11.8569011 57.3993416,21.3573051 C57.3993416,30.6096567 52.0662166,34.9753776 46.7082864,39.0930462 C45.0463359,40.7301915 43.136333,42.4665578 43.136333,45.2199386 C43.136333,47.9733194 45.0463359,49.4864385 46.4354289,50.602674 L51.0243969,54.1002118 C56.6303794,58.713985 61.715452,62.9804849 61.715452,71.6127058 C61.715452,83.3703859 50.1314085,95.227287 28.2283883,95.227287 C9.77329547,95.2520922 0.868217054,86.6198714 0.868217054,77.3675197 C0.868217054,72.8777726 3.15029843,66.5028279 10.6662838,62.1123018 C18.5543477,57.3745024 29.2702081,56.7295664 34.9754115,56.3574879 C33.1894348,54.1002118 31.1554058,51.7189095 31.1554058,47.8492932 C31.1554058,45.7160432 31.8003418,44.4757816 32.4204726,42.9626624 C31.0313796,43.0866886 29.6174813,43.2107148 28.3524145,43.2107148 C14.8583681,43.2107148 7.21835654,33.3382323 7.21835654,23.589776 C7.21835654,17.8349621 9.89732163,11.4600173 15.379278,6.84624413 C22.6472111,0.992209294 31.3042371,0 38.1752865,0 L64.3944171,0 L56.2583009,4.48974706 L48.370237,4.48974706 L48.370237,4.48974706 Z M39.3163272,60.0038571 C38.2993127,59.8798309 37.6543766,59.8798309 36.3893098,59.8798309 C35.2482691,59.8798309 28.3772197,60.1278832 23.0192895,61.8642495 C20.2162983,62.8564588 12.0801821,65.8578919 12.0801821,74.7381651 C12.0801821,83.6184383 20.8612343,89.993383 34.4793069,89.993383 C46.7082864,89.993383 53.1824521,84.2385691 53.1824521,76.4993366 C53.1824521,70.1243919 48.9903678,66.7508803 39.3163272,60.0038571 L39.3163272,60.0038571 Z M43.0123068,36.2404445 C45.9393242,33.3630375 46.1873766,29.3693951 46.1873766,27.112119 C46.1873766,18.1078196 40.7054202,4.11766857 30.1383912,4.11766857 C26.8392953,4.11766857 23.2673419,5.73000867 21.2333128,8.23533714 C19.0752576,10.8646918 18.4303216,14.2382034 18.4303216,17.4876888 C18.4303216,25.8718573 23.391368,39.7379822 34.3552807,39.7379822 C37.5303505,39.7627875 40.9534725,38.2496683 43.0123068,36.2404445 L43.0123068,36.2404445 Z" id="Shape" sketch:type="MSShapeGroup"></path>
            <path d="M111.995658,19.4224969 L92.5731611,19.4224969 L92.5731611,0.0248052324 L88.1826349,0.0248052324 L88.1826349,19.4224969 L68.4128647,19.4224969 L68.4128647,23.8378283 L88.1826349,23.8378283 L88.1826349,43.9052613 L92.5731611,43.9052613 L92.5731611,23.8378283 L111.995658,23.8378283 L111.995658,19.4224969 Z" id="Shape" sketch:type="MSShapeGroup"></path>
        </g>
    </g>
</svg>