<?xml version="1.0" encoding="UTF-8" standalone="no"?>
<svg width="512px" height="512px" viewBox="0 0 512 512" version="1.1" xmlns="http://www.w3.org/2000/svg" xmlns:xlink="http://www.w3.org/1999/xlink">
    <!-- Generator: Sketch 3.8.3 (29802) - http://www.bohemiancoding.com/sketch -->
    <title>Slice 1</title>
    <desc>Created with Sketch.</desc>
    <defs>
        <rect id="path-1" x="167" y="0" width="54" height="96"></rect>
        <mask id="mask-2" maskContentUnits="userSpaceOnUse" maskUnits="objectBoundingBox" x="0" y="0" width="54" height="96" fill="white">
            <use xlink:href="#path-1"></use>
        </mask>
        <polygon id="path-3" points="128 2 256 130 0 130"></polygon>
        <mask id="mask-4" maskContentUnits="userSpaceOnUse" maskUnits="objectBoundingBox" x="0" y="0" width="256" height="128" fill="white">
            <use xlink:href="#path-3"></use>
        </mask>
        <rect id="path-5" x="0" y="135" width="256" height="256"></rect>
        <mask id="mask-6" maskContentUnits="userSpaceOnUse" maskUnits="objectBoundingBox" x="0" y="0" width="256" height="256" fill="white">
            <use xlink:href="#path-5"></use>
        </mask>
        <rect id="path-7" x="34" y="295" width="54" height="96"></rect>
        <mask id="mask-8" maskContentUnits="userSpaceOnUse" maskUnits="objectBoundingBox" x="0" y="0" width="54" height="96" fill="white">
            <use xlink:href="#path-7"></use>
        </mask>
    </defs>
    <g id="Page-1" stroke="none" stroke-width="1" fill="none" fill-rule="evenodd">
        <g id="house" transform="translate(128.000000, 61.000000)">
            <use id="chimney" stroke="#D81F17" mask="url(#mask-2)" stroke-width="12" fill="#FFFFFF" xlink:href="#path-1"></use>
            <use id="roof" stroke="#FFFFFF" mask="url(#mask-4)" stroke-width="8" fill="#D81F17" xlink:href="#path-3"></use>
            <use stroke="#FFFFFF" mask="url(#mask-6)" stroke-width="8" fill="#4169E1" xlink:href="#path-5"></use>
            <use id="door" stroke="#D81F17" mask="url(#mask-8)" stroke-width="12" fill="#FFFFFF" xlink:href="#path-7"></use>
            <circle id="holder" fill="#000000" cx="71" cy="348" r="3"></circle>
        </g>
        <g id="note" transform="translate(303.000000, 76.000000)" fill="#000000">
            <path d="M29.9714635,43 C29.6499543,45.80325 26.6514816,48 23,48 C19.1340068,48 16,45.5375661 16,42.5 C16,39.4624339 19.1340068,37 23,37 C24.4872481,37 25.8661665,37.3644259 27,37.9858273 L27,19.592401 L14,9.15947177 L14,0 L30,11.7297832 L30,19.5 L30,43 L29.9714635,43 Z M13.9714635,25 C13.6499543,27.80325 10.6514816,30 7,30 C3.13400675,30 0,27.5375661 0,24.5 C0,21.4624339 3.13400675,19 7,19 C8.48724814,19 9.86616652,19.3644259 11,19.9858273 L11,0 L14,0 L14,25 L13.9714635,25 Z" id="Combined-Shape"></path>
        </g>
    </g>
</svg>