<?xml version="1.0" encoding="UTF-8" standalone="no"?>
<svg width="128px" height="128px" viewBox="0 0 128 128" version="1.1" xmlns="http://www.w3.org/2000/svg" xmlns:xlink="http://www.w3.org/1999/xlink" xmlns:sketch="http://www.bohemiancoding.com/sketch/ns">
    <!-- Generator: Sketch 3.3.3 (12072) - http://www.bohemiancoding.com/sketch -->
    <title>Slice 1</title>
    <desc>Created with Sketch.</desc>
    <defs></defs>
    <g id="Page-1" stroke="none" stroke-width="1" fill="none" fill-rule="evenodd" sketch:type="MSPage">
        <g id="instagram" sketch:type="MSLayerGroup" transform="translate(8.000000, 8.000000)" stroke-width="4" stroke="#231F20">
            <g id="Shape" sketch:type="MSShapeGroup">
                <path d="M81.128946,43 C90.3766805,63.0068736 76.3803169,87.2202316 52.1035744,84.8369434 C36.4872258,83.2995874 22.2029502,66.4118469 28.5389344,47.2238665 C28.936253,46.0109775 29.7846337,44.6822074 30.4333955,43.4055839"></path>
                <path d="M0,36 L0,92.6552828 C1.06526221,102.944656 9.19540549,111.026681 19.7180229,112 L56.1348556,112 L92.5575094,112 C103.09565,110.922397 110.952201,102.195355 112,92.9217869 L112,36"></path>
                <path d="M53.2265054,35.1874672 C48.9498528,35.7074742 46.6523818,36.6368898 44.5150201,37.9272057 C39.6095048,40.8900816 34.9933435,46.4122459 34.169649,53.8048831 C32.5010408,68.7395627 43.3884684,79 55.9483623,79 C65.9522956,79 78.122526,71.8110968 77.9990683,56.8201478 C77.8852557,43.1738439 67.057628,33.5187879 53.2265054,35.1874672 L53.2265054,35.1874672 Z M72.0113689,61.1994608 C70.1884385,68.753145 61.8492554,74.4674014 53.2265054,73.2488774 C44.9837736,72.0866229 36.1256823,61.7776775 40.9733268,50.2502082 C42.7634637,46.006718 46.7912718,41.2471014 55.1285259,40.6669443 C65.3735875,39.9529048 74.9145544,49.1597457 72.0113689,61.1994608 L72.0113689,61.1994608 Z"></path>
                <path d="M20,28 L20,0 L20,28 Z M10.2289881,28.7208269 L10.2289881,3.31401681 C8.75414661,4.23349019 7.44382155,5.27229948 6.3812389,6.35023529 C0.207033674,12.5909163 -0.292322109,23.3311479 0.100581859,37 L34.7903249,37 C36.1993598,36.6615555 37.8890404,34.9125998 39.1625912,33.9598689 C43.8367936,30.483477 49.8464824,28.5819278 55.9510101,28.5154127 C62.2258606,28.5819278 68.2374849,30.483477 72.9097518,33.9598689 C74.1833026,34.9106435 75.8710477,36.6615555 77.2781472,37 L111.971761,37 C112.124665,23.1922487 111.867245,12.5909163 105.687233,6.35023529 C102.673679,3.30619151 97.7439923,0.514513826 92.3014014,0 L56.0826232,0 L30.0328965,0 L30.0328965,28.7208269 L10.2289881,28.7208269 Z M101,25.0781131 C101,26.6900534 99.6913015,28 98.0824068,28 L85.9175932,28 C84.3086985,28 83,26.6900534 83,25.0781131 L83,12.9199259 C83,11.3099466 84.3086985,10 85.9175932,10 L98.0824068,10 C99.6913015,10 101,11.3099466 101,12.9199259 L101,25.0781131 L101,25.0781131 Z"></path>
            </g>
        </g>
    </g>
</svg>