<?xml version="1.0" encoding="UTF-8" standalone="no"?>
<svg width="128px" height="128px" viewBox="0 0 128 128" version="1.1" xmlns="http://www.w3.org/2000/svg" xmlns:xlink="http://www.w3.org/1999/xlink" xmlns:sketch="http://www.bohemiancoding.com/sketch/ns">
    <!-- Generator: Sketch 3.3.2 (12043) - http://www.bohemiancoding.com/sketch -->
    <title>Slice 1 Copy</title>
    <desc>Created with Sketch.</desc>
    <defs></defs>
    <g id="Page-1" stroke="none" stroke-width="1" fill="none" fill-rule="evenodd" sketch:type="MSPage">
        <g id="logo-copy-3" sketch:type="MSLayerGroup">
            <rect id="Rectangle-1" fill="#4A4A4A" sketch:type="MSShapeGroup" x="0" y="0" width="128" height="128"></rect>
            <path d="M21.5625,120 L21.5625,116.0625 L26.65625,115.1875 L26.65625,91.03125 L21.5625,90.15625 L21.5625,86.1875 L32.1875,86.1875 L32.59375,90.59375 C33.6770888,88.9895753 35.0729081,87.7500044 36.78125,86.875 C38.4895919,85.9999956 40.4687387,85.5625 42.71875,85.5625 C44.9687613,85.5625 46.9010336,86.0833281 48.515625,87.125 C50.1302164,88.1666719 51.3437459,89.7291563 52.15625,91.8125 C53.2187553,89.8958238 54.6249913,88.3750056 56.375,87.25 C58.1250087,86.1249944 60.166655,85.5625 62.5,85.5625 C65.9583506,85.5625 68.68749,86.7447798 70.6875,89.109375 C72.68751,91.4739702 73.6875,95.0312263 73.6875,99.78125 L73.6875,115.1875 L78.78125,116.0625 L78.78125,120 L62.40625,120 L62.40625,116.0625 L67.5,115.1875 L67.5,99.71875 C67.5,96.3854 66.9270891,94.0260486 65.78125,92.640625 C64.6354109,91.2552014 62.9375113,90.5625 60.6875,90.5625 C58.5416559,90.5625 56.8177148,91.3177008 55.515625,92.828125 C54.2135352,94.3385492 53.4583344,96.2395719 53.25,98.53125 L53.25,115.1875 L58.34375,116.0625 L58.34375,120 L42,120 L42,116.0625 L47.09375,115.1875 L47.09375,99.71875 C47.09375,96.5520675 46.5052142,94.2343823 45.328125,92.765625 C44.1510358,91.2968677 42.4479278,90.5625 40.21875,90.5625 C38.3437406,90.5625 36.8020894,90.9479128 35.59375,91.71875 C34.3854106,92.4895872 33.4583366,93.5729097 32.8125,94.96875 L32.8125,115.1875 L37.90625,116.0625 L37.90625,120 L21.5625,120 Z M82.40625,120 L82.40625,116.0625 L87.5,115.1875 L87.5,76.09375 L82.40625,75.21875 L82.40625,71.25 L93.65625,71.25 L93.65625,90.6875 C94.8229225,89.0624919 96.2499916,87.8020878 97.9375,86.90625 C99.6250084,86.0104122 101.49999,85.5625 103.5625,85.5625 C107.187518,85.5625 109.99999,86.6458225 112,88.8125 C114.00001,90.9791775 115,94.3124775 115,98.8125 L115,115.1875 L120.09375,116.0625 L120.09375,120 L103.75,120 L103.75,116.0625 L108.84375,115.1875 L108.84375,98.75 C108.84375,95.9583194 108.244798,93.89584 107.046875,92.5625 C105.848952,91.22916 104.062512,90.5625 101.6875,90.5625 C99.9999916,90.5625 98.4635486,90.9635377 97.078125,91.765625 C95.6927014,92.5677123 94.5520878,93.6562431 93.65625,95.03125 L93.65625,115.1875 L98.75,116.0625 L98.75,120 L82.40625,120 Z" id="mh-copy-3" fill="#FFFFFF" sketch:type="MSShapeGroup"></path>
        </g>
    </g>
</svg>