<?xml version="1.0" encoding="UTF-8" standalone="no"?>
<svg width="138px" height="138px" viewBox="0 0 138 138" version="1.1" xmlns="http://www.w3.org/2000/svg" xmlns:xlink="http://www.w3.org/1999/xlink" xmlns:sketch="http://www.bohemiancoding.com/sketch/ns">
    <!-- Generator: Sketch 3.3.3 (12072) - http://www.bohemiancoding.com/sketch -->
    <title>Slice 1</title>
    <desc>Created with Sketch.</desc>
    <defs></defs>
    <g id="Page-1" stroke="none" stroke-width="1" fill="none" fill-rule="evenodd" sketch:type="MSPage">
        <g id="logo-copy-5" sketch:type="MSLayerGroup" transform="translate(-34.000000, -134.000000)">
            <rect id="Rectangle-9" stroke="#979797" fill="#323232" sketch:type="MSShapeGroup" x="0" y="0" width="600" height="300"></rect>
            <g id="Group" transform="translate(34.000000, 134.000000)" sketch:type="MSShapeGroup">
                <g id="logo">
                    <rect id="Rectangle-1" stroke="#F5F5F5" x="0" y="0" width="128" height="128"></rect>
                    <rect id="Rectangle-1-Copy" stroke="#F5F5F5" x="10" y="10" width="128" height="128"></rect>
                    <path d="M23.5625,120 L23.5625,116.0625 L28.65625,115.1875 L28.65625,91.03125 L23.5625,90.15625 L23.5625,86.1875 L34.1875,86.1875 L34.59375,90.59375 C35.6770888,88.9895753 37.0729081,87.7500044 38.78125,86.875 C40.4895919,85.9999956 42.4687387,85.5625 44.71875,85.5625 C46.9687613,85.5625 48.9010336,86.0833281 50.515625,87.125 C52.1302164,88.1666719 53.3437459,89.7291563 54.15625,91.8125 C55.2187553,89.8958238 56.6249913,88.3750056 58.375,87.25 C60.1250087,86.1249944 62.166655,85.5625 64.5,85.5625 C67.9583506,85.5625 70.68749,86.7447798 72.6875,89.109375 C74.68751,91.4739702 75.6875,95.0312263 75.6875,99.78125 L75.6875,115.1875 L80.78125,116.0625 L80.78125,120 L64.40625,120 L64.40625,116.0625 L69.5,115.1875 L69.5,99.71875 C69.5,96.3854 68.9270891,94.0260486 67.78125,92.640625 C66.6354109,91.2552014 64.9375113,90.5625 62.6875,90.5625 C60.5416559,90.5625 58.8177148,91.3177008 57.515625,92.828125 C56.2135352,94.3385492 55.4583344,96.2395719 55.25,98.53125 L55.25,115.1875 L60.34375,116.0625 L60.34375,120 L44,120 L44,116.0625 L49.09375,115.1875 L49.09375,99.71875 C49.09375,96.5520675 48.5052142,94.2343823 47.328125,92.765625 C46.1510358,91.2968677 44.4479278,90.5625 42.21875,90.5625 C40.3437406,90.5625 38.8020894,90.9479128 37.59375,91.71875 C36.3854106,92.4895872 35.4583366,93.5729097 34.8125,94.96875 L34.8125,115.1875 L39.90625,116.0625 L39.90625,120 L23.5625,120 Z M84.40625,120 L84.40625,116.0625 L89.5,115.1875 L89.5,76.09375 L84.40625,75.21875 L84.40625,71.25 L95.65625,71.25 L95.65625,90.6875 C96.8229225,89.0624919 98.2499916,87.8020878 99.9375,86.90625 C101.625008,86.0104122 103.49999,85.5625 105.5625,85.5625 C109.187518,85.5625 111.99999,86.6458225 114,88.8125 C116.00001,90.9791775 117,94.3124775 117,98.8125 L117,115.1875 L122.09375,116.0625 L122.09375,120 L105.75,120 L105.75,116.0625 L110.84375,115.1875 L110.84375,98.75 C110.84375,95.9583194 110.244798,93.89584 109.046875,92.5625 C107.848952,91.22916 106.062512,90.5625 103.6875,90.5625 C101.999992,90.5625 100.463549,90.9635377 99.078125,91.765625 C97.6927014,92.5677123 96.5520878,93.6562431 95.65625,95.03125 L95.65625,115.1875 L100.75,116.0625 L100.75,120 L84.40625,120 Z" id="mh-copy-2" fill="#F5F5F5"></path>
                </g>
            </g>
        </g>
    </g>
</svg>