<?xml version="1.0" encoding="UTF-8" standalone="no"?>
<svg width="138px" height="138px" viewBox="0 0 138 138" version="1.1" xmlns="http://www.w3.org/2000/svg" xmlns:xlink="http://www.w3.org/1999/xlink" xmlns:sketch="http://www.bohemiancoding.com/sketch/ns">
    <!-- Generator: Sketch 3.3.2 (12043) - http://www.bohemiancoding.com/sketch -->
    <title>Slice 1</title>
    <desc>Created with Sketch.</desc>
    <defs></defs>
    <g id="Page-1" stroke="none" stroke-width="1" fill="none" fill-rule="evenodd" sketch:type="MSPage">
        <g id="logo-copy-2" sketch:type="MSLayerGroup" transform="translate(-1.000000, 0.000000)">
            <rect id="Rectangle-1" stroke="#4A4A4A" sketch:type="MSShapeGroup" x="1" y="0" width="128" height="128"></rect>
            <rect id="Rectangle-1-Copy" stroke="#4A4A4A" sketch:type="MSShapeGroup" x="11" y="10" width="128" height="128"></rect>
            <path d="M24.5625,120 L24.5625,116.0625 L29.65625,115.1875 L29.65625,91.03125 L24.5625,90.15625 L24.5625,86.1875 L35.1875,86.1875 L35.59375,90.59375 C36.6770888,88.9895753 38.0729081,87.7500044 39.78125,86.875 C41.4895919,85.9999956 43.4687387,85.5625 45.71875,85.5625 C47.9687613,85.5625 49.9010336,86.0833281 51.515625,87.125 C53.1302164,88.1666719 54.3437459,89.7291563 55.15625,91.8125 C56.2187553,89.8958238 57.6249913,88.3750056 59.375,87.25 C61.1250087,86.1249944 63.166655,85.5625 65.5,85.5625 C68.9583506,85.5625 71.68749,86.7447798 73.6875,89.109375 C75.68751,91.4739702 76.6875,95.0312263 76.6875,99.78125 L76.6875,115.1875 L81.78125,116.0625 L81.78125,120 L65.40625,120 L65.40625,116.0625 L70.5,115.1875 L70.5,99.71875 C70.5,96.3854 69.9270891,94.0260486 68.78125,92.640625 C67.6354109,91.2552014 65.9375113,90.5625 63.6875,90.5625 C61.5416559,90.5625 59.8177148,91.3177008 58.515625,92.828125 C57.2135352,94.3385492 56.4583344,96.2395719 56.25,98.53125 L56.25,115.1875 L61.34375,116.0625 L61.34375,120 L45,120 L45,116.0625 L50.09375,115.1875 L50.09375,99.71875 C50.09375,96.5520675 49.5052142,94.2343823 48.328125,92.765625 C47.1510358,91.2968677 45.4479278,90.5625 43.21875,90.5625 C41.3437406,90.5625 39.8020894,90.9479128 38.59375,91.71875 C37.3854106,92.4895872 36.4583366,93.5729097 35.8125,94.96875 L35.8125,115.1875 L40.90625,116.0625 L40.90625,120 L24.5625,120 Z M85.40625,120 L85.40625,116.0625 L90.5,115.1875 L90.5,76.09375 L85.40625,75.21875 L85.40625,71.25 L96.65625,71.25 L96.65625,90.6875 C97.8229225,89.0624919 99.2499916,87.8020878 100.9375,86.90625 C102.625008,86.0104122 104.49999,85.5625 106.5625,85.5625 C110.187518,85.5625 112.99999,86.6458225 115,88.8125 C117.00001,90.9791775 118,94.3124775 118,98.8125 L118,115.1875 L123.09375,116.0625 L123.09375,120 L106.75,120 L106.75,116.0625 L111.84375,115.1875 L111.84375,98.75 C111.84375,95.9583194 111.244798,93.89584 110.046875,92.5625 C108.848952,91.22916 107.062512,90.5625 104.6875,90.5625 C102.999992,90.5625 101.463549,90.9635377 100.078125,91.765625 C98.6927014,92.5677123 97.5520878,93.6562431 96.65625,95.03125 L96.65625,115.1875 L101.75,116.0625 L101.75,120 L85.40625,120 Z" id="mh-copy-2" fill="#4A4A4A" sketch:type="MSShapeGroup"></path>
        </g>
    </g>
</svg>