<?xml version="1.0" encoding="UTF-8" standalone="no"?>
<svg width="128px" height="128px" viewBox="0 0 128 128" version="1.1" xmlns="http://www.w3.org/2000/svg" xmlns:xlink="http://www.w3.org/1999/xlink" xmlns:sketch="http://www.bohemiancoding.com/sketch/ns">
    <!-- Generator: Sketch 3.3.2 (12043) - http://www.bohemiancoding.com/sketch -->
    <title>Slice 1</title>
    <desc>Created with Sketch.</desc>
    <defs></defs>
    <g id="Page-1" stroke="none" stroke-width="1" fill="none" fill-rule="evenodd" sketch:type="MSPage">
        <g id="logo-copy" sketch:type="MSLayerGroup" transform="translate(-142.000000, 0.000000)">
            <rect id="Rectangle-1" stroke="#FEEF35" stroke-width="4" sketch:type="MSShapeGroup" x="142" y="0" width="128" height="128"></rect>
            <path d="M163.5625,120 L163.5625,116.0625 L168.65625,115.1875 L168.65625,91.03125 L163.5625,90.15625 L163.5625,86.1875 L174.1875,86.1875 L174.59375,90.59375 C175.677089,88.9895753 177.072908,87.7500044 178.78125,86.875 C180.489592,85.9999956 182.468739,85.5625 184.71875,85.5625 C186.968761,85.5625 188.901034,86.0833281 190.515625,87.125 C192.130216,88.1666719 193.343746,89.7291563 194.15625,91.8125 C195.218755,89.8958238 196.624991,88.3750056 198.375,87.25 C200.125009,86.1249944 202.166655,85.5625 204.5,85.5625 C207.958351,85.5625 210.68749,86.7447798 212.6875,89.109375 C214.68751,91.4739702 215.6875,95.0312263 215.6875,99.78125 L215.6875,115.1875 L220.78125,116.0625 L220.78125,120 L204.40625,120 L204.40625,116.0625 L209.5,115.1875 L209.5,99.71875 C209.5,96.3854 208.927089,94.0260486 207.78125,92.640625 C206.635411,91.2552014 204.937511,90.5625 202.6875,90.5625 C200.541656,90.5625 198.817715,91.3177008 197.515625,92.828125 C196.213535,94.3385492 195.458334,96.2395719 195.25,98.53125 L195.25,115.1875 L200.34375,116.0625 L200.34375,120 L184,120 L184,116.0625 L189.09375,115.1875 L189.09375,99.71875 C189.09375,96.5520675 188.505214,94.2343823 187.328125,92.765625 C186.151036,91.2968677 184.447928,90.5625 182.21875,90.5625 C180.343741,90.5625 178.802089,90.9479128 177.59375,91.71875 C176.385411,92.4895872 175.458337,93.5729097 174.8125,94.96875 L174.8125,115.1875 L179.90625,116.0625 L179.90625,120 L163.5625,120 Z M224.40625,120 L224.40625,116.0625 L229.5,115.1875 L229.5,76.09375 L224.40625,75.21875 L224.40625,71.25 L235.65625,71.25 L235.65625,90.6875 C236.822923,89.0624919 238.249992,87.8020878 239.9375,86.90625 C241.625008,86.0104122 243.49999,85.5625 245.5625,85.5625 C249.187518,85.5625 251.99999,86.6458225 254,88.8125 C256.00001,90.9791775 257,94.3124775 257,98.8125 L257,115.1875 L262.09375,116.0625 L262.09375,120 L245.75,120 L245.75,116.0625 L250.84375,115.1875 L250.84375,98.75 C250.84375,95.9583194 250.244798,93.89584 249.046875,92.5625 C247.848952,91.22916 246.062512,90.5625 243.6875,90.5625 C241.999992,90.5625 240.463549,90.9635377 239.078125,91.765625 C237.692701,92.5677123 236.552088,93.6562431 235.65625,95.03125 L235.65625,115.1875 L240.75,116.0625 L240.75,120 L224.40625,120 Z" id="mh-copy" fill="#4A4A4A" sketch:type="MSShapeGroup"></path>
        </g>
    </g>
</svg>