<?xml version="1.0" encoding="UTF-8" standalone="no"?>
<svg width="48px" height="48px" viewBox="0 0 48 48" version="1.1" xmlns="http://www.w3.org/2000/svg" xmlns:xlink="http://www.w3.org/1999/xlink" xmlns:sketch="http://www.bohemiancoding.com/sketch/ns">
    <!-- Generator: Sketch 3.3.2 (12043) - http://www.bohemiancoding.com/sketch -->
    <title>Artboard 1</title>
    <desc>Created with Sketch.</desc>
    <defs></defs>
    <g id="Page-1" stroke="none" stroke-width="1" fill="none" fill-rule="evenodd" sketch:type="MSPage">
        <g id="Artboard-1" sketch:type="MSArtboardGroup" fill="#4A4A4A">
            <path d="M2.271875,37 L2.271875,34.046875 L6.0921875,33.390625 L6.0921875,15.2734375 L2.271875,14.6171875 L2.271875,11.640625 L10.240625,11.640625 L10.5453125,14.9453125 C11.3578166,13.7421815 12.4046811,12.8125033 13.6859375,12.15625 C14.9671939,11.4999967 16.4515541,11.171875 18.1390625,11.171875 C19.8265709,11.171875 21.2757752,11.5624961 22.4867188,12.34375 C23.6976623,13.1250039 24.6078095,14.2968672 25.2171875,15.859375 C26.0140665,14.4218678 27.0687434,13.2812542 28.38125,12.4375 C29.6937566,11.5937458 31.2249913,11.171875 32.975,11.171875 C35.568763,11.171875 37.6156175,12.0585849 39.115625,13.8320312 C40.6156325,15.6054776 41.365625,18.2734197 41.365625,21.8359375 L41.365625,33.390625 L45.1859375,34.046875 L45.1859375,37 L32.9046875,37 L32.9046875,34.046875 L36.725,33.390625 L36.725,21.7890625 C36.725,19.28905 36.2953168,17.5195364 35.4359375,16.4804687 C34.5765582,15.4414011 33.3031334,14.921875 31.615625,14.921875 C30.006242,14.921875 28.7132861,15.4882756 27.7367188,16.6210937 C26.7601514,17.7539119 26.1937508,19.1796789 26.0375,20.8984375 L26.0375,33.390625 L29.8578125,34.046875 L29.8578125,37 L17.6,37 L17.6,34.046875 L21.4203125,33.390625 L21.4203125,21.7890625 C21.4203125,19.4140506 20.9789107,17.6757868 20.0960938,16.5742187 C19.2132768,15.4726507 17.9359459,14.921875 16.2640625,14.921875 C14.8578055,14.921875 13.701567,15.2109346 12.7953125,15.7890625 C11.889058,16.3671904 11.1937524,17.1796823 10.709375,18.2265625 L10.709375,33.390625 L14.5296875,34.046875 L14.5296875,37 L2.271875,37 Z" id="Path" sketch:type="MSShapeGroup"></path>
        </g>
    </g>
</svg>