<?xml version="1.0" encoding="UTF-8" standalone="no"?>
<svg width="160px" height="210px" viewBox="0 0 160 210" version="1.1" xmlns="http://www.w3.org/2000/svg" xmlns:xlink="http://www.w3.org/1999/xlink" xmlns:sketch="http://www.bohemiancoding.com/sketch/ns">
    <!-- Generator: Sketch 3.3.3 (12072) - http://www.bohemiancoding.com/sketch -->
    <title>Slice 1</title>
    <desc>Created with Sketch.</desc>
    <defs></defs>
    <g id="Page-1" stroke="none" stroke-width="1" fill="none" fill-rule="evenodd" sketch:type="MSPage">
        <g id="maxim" sketch:type="MSLayerGroup" transform="translate(7.000000, 5.000000)">
            <g id="shape" sketch:type="MSShapeGroup">
                <path d="M56.7575455,140.750548 L52.5807273,141.13274 L52.7375455,141.397123 L49.3748182,152.219041 L57.2020909,147.866986 L56.7575455,140.750548 Z" id="Fill-2" fill="#BA8778"></path>
                <path d="M50.9781818,138.44 L52.5409091,141.066027 L51.9559091,137.587945 L50.9781818,138.44 Z" id="Fill-3" fill="#BA8778"></path>
                <path d="M56.7107727,140.009315 L58.7930455,138.603836 L56.7203182,137.873699 L55.9580455,136.25863 L54.6189545,133.049041 L54.5998636,133.110685 L54.2275909,133.047671 L54.2848636,135.56 L51.9557727,137.587397 L52.5407727,141.065479 L52.5816818,141.132603 L56.7571364,140.750411 L56.7107727,140.009315 Z" id="Fill-4" fill="#B37C6E"></path>
                <path d="M52.0258636,53.2264384 L52.1090455,52.0415068 L55.6858636,54.2086301 L67.5958636,38.1264384 L66.2813182,35.9058904 L51.0426818,44.6579452 L52.0258636,53.2264384 Z" id="Fill-5" fill="#DBAF96"></path>
                <path d="M79.8342273,180.86274 L75.0015,185.410685 L71.3674091,181.524384 L70.0665,181.380548 L54.8701364,183.706575 L46.9637727,182.216164 L47.0701364,182.36 L62.5105909,196.439452 L75.0015,192.643562 L93.0846818,195.092877 L103.782409,185.910685 L95.7315,181.46137 L79.8342273,180.86274 Z" id="Fill-6" fill="#DFAF9A"></path>
                <path d="M49.2385909,78.2310959 L55.7281364,78.2310959 L59.9295,79.8256164 L61.7472273,82.2242466 L63.6358636,78.9228767 L71.7222273,77.2078082 L71.4549545,76.0845205 L69.9658636,75.4584932 L54.2854091,67.0516438 L53.3145,64.4612329 L53.6513182,67.3941096 L49.2385909,78.2310959 Z" id="Fill-7" fill="#C79583"></path>
                <path d="M35.9998636,79.5787671 L36.6844091,79.6623288 L44.3262273,79.7910959 L44.8239545,79.7664384 L48.6898636,78.2308219 L49.2380455,78.2308219 L53.6507727,67.3938356 L53.3139545,64.4609589 L51.5644091,59.7869863 L52.0253182,53.2267123 L51.0421364,44.6568493 L37.2775909,52.5623288 L32.7966818,79.5979452 L35.8730455,79.65 L35.9998636,79.5787671 Z" id="Fill-8" fill="#CB9B88"></path>
                <path d="M37.2771818,52.5627397 L51.0417273,44.6572603 L66.2817273,35.9065753 L68.3735455,34.7052055 L61.6862727,34.7052055 L38.784,43.469589 L37.2771818,52.5627397 Z" id="Fill-9" fill="#AC7C6E"></path>
                <path d="M11.2153636,70.4919178 L9.85309091,79.8247945 L11.0149091,87.0439726 L15.7480909,89.8658904 L17.4935455,89.4289041 L19.1271818,86.2686301 L25.6112727,81.1234247 L31.6426364,79.5782192 L32.7976364,79.5973973 L37.2771818,52.5631507 L38.784,43.4686301 L37.3876364,44.0028767 L11.0149091,66.2494521 L14.7185455,63.4494521 L11.2153636,70.4919178 Z" id="Fill-10" fill="#CBA38B"></path>
                <path d="M21.8365909,103.450685 L21.8365909,99.5931507 L24.8202273,94.4342466 L24.5747727,92.9150685 L22.7706818,94.0506849 L19.1270455,94.5082192 L16.8565909,90.660274 L17.4934091,89.4287671 L15.7479545,89.8657534 L22.2320455,104.661644 L22.5770455,104.954795 L21.8365909,103.450685 Z" id="Fill-11" fill="#B78E7E"></path>
                <path d="M41.7036818,156.48411 L49.3755,152.218356 L52.7382273,141.397808 L52.5814091,141.133425 L52.5405,141.064932 L50.9777727,138.440274 L43.0945909,145.306027 L43.9018636,139.248493 L37.8486818,146.438904 L38.9082273,163.386849 L41.2959545,153.807397 L41.7036818,156.48411 Z" id="Fill-12" fill="#CE9D86"></path>
                <path d="M37.848,146.408904 L38.4998182,144.922603 L37.6911818,143.899315 L37.848,146.408904 Z" id="Fill-13" fill="#CE9D86"></path>
                <path d="M67.5345,139.843014 L65.1058636,141.396438 L62.5108636,139.911507 L58.7935909,138.603288 L56.7113182,140.008767 L56.7576818,140.751233 L57.2022273,147.866301 L63.0740455,144.601918 L70.7022273,144.518356 L71.6758636,141.38274 L67.5263182,139.833425 L67.5345,139.843014 Z" id="Fill-14" fill="#CE9D86"></path>
                <path d="M23.7242727,107.28726 L22.5774545,104.955753 L22.2324545,104.661233 L23.982,108.650274 L24.3597273,107.855753 L23.7242727,107.28726 Z" id="Fill-15" fill="#D9AC94"></path>
                <path d="M41.9787273,136.998219 L40.8196364,138.269452 L42.1287273,125.054384 L30.7082727,119.117397 L26.9050909,115.318767 L27.5705455,116.836575 L26.8491818,128.611918 L24.5691818,127.477671 L29.1537273,133.110548 L37.6900909,143.899589 L38.5000909,144.922877 L41.9787273,136.998219 Z" id="Fill-16" fill="#D9AC94"></path>
                <path d="M27.5698636,116.836301 L26.9057727,115.319863 L22.7712273,111.192466 L23.9821364,108.65137 L22.2325909,104.660959 L15.7471364,89.8650685 L11.0153182,87.0431507 L11.0153182,87.0445205 L14.5907727,109.239041 L12.3039545,106.619863 L12.5957727,111.037671 L13.6948636,122.069178 L24.5685,127.477397 L26.8485,128.611644 L27.5698636,116.836301 Z" id="Fill-17" fill="#CDA38C"></path>
                <path d="M71.4609545,151.638219 L64.2514091,148.823151 L51.5641364,158.164247 L57.9227727,159.92589 L66.8164091,155.53137 L74.4241364,156.564247 L75.3786818,156.394384 L76.5636818,151.751918 L75.5245909,151.505342 L74.6382273,152.810822 L71.4609545,151.638219 Z" id="Fill-18" fill="#BF8C75"></path>
                <path d="M50.4456818,164.303014 L54.2856818,161.723562 L57.9225,159.926301 L51.5638636,158.164658 L42.9265909,164.523562 L43.4188636,167.764658 L42.8106818,168.385205 L49.3861364,166.061918 L53.1115909,165.222192 L53.1129545,165.218082 L50.4456818,164.303014 Z" id="Fill-19" fill="#986D65"></path>
                <path d="M98.2645909,164.559452 L98.2645909,164.559452 L88.4150455,172.569041 L88.7464091,173.130685 L98.5986818,176.216986 L103.993227,166.858082 L99.4864091,164.306027 L98.2645909,164.559452 Z" id="Fill-20" fill="#D9AC94"></path>
                <path d="M98.0886818,159.918493 L98.1214091,159.940411 L97.8923182,158.674658 L94.2282273,156.604795 L95.9995909,160.934932 L98.0886818,159.918493 Z" id="Fill-21" fill="#C29277"></path>
                <path d="M95.9993182,160.935342 L96.7111364,162.675068 L99.5025,164.302466 L99.4861364,164.306575 L103.992955,166.85863 L104.460682,167.123014 L103.781591,163.76274 L98.1225,159.940822 L98.0884091,159.918904 L95.9993182,160.935342 Z" id="Fill-22" fill="#845555"></path>
                <path d="M87.0503182,166.883014 L85.3335,167.369315 L88.4139545,172.569315 L98.2648636,164.559726 L87.0503182,166.883014 Z" id="Fill-23" fill="#DFB5A4"></path>
                <path d="M59.3311364,167.351918 L53.1129545,165.217671 L53.1115909,165.223151 L53.1197727,165.221781 L51.5638636,171.584795 L48.5270455,178.684795 L53.8956818,176.217671 L56.9815909,174.416301 L62.4115909,167.965616 L59.3311364,167.351918 Z" id="Fill-24" fill="#C1927F"></path>
                <path d="M68.8798636,170.753699 L67.0103182,168.881096 L62.4121364,167.964658 L56.9821364,174.416712 L58.6866818,173.422192 L64.9266818,171.757808 L64.2503182,170.400274 L68.8798636,170.753699 Z" id="Fill-25" fill="#B98879"></path>
                <path d="M85.3333636,167.369452 L74.6383636,170.400959 L81.7210909,168.39274 L83.9383636,167.765342 L81.027,171.680411 L85.7533636,172.042055 L83.8797273,174.416027 L89.5088182,174.416027 L88.7465455,173.131096 L88.4151818,172.569452 L85.3333636,167.369452 Z" id="Fill-26" fill="#B98879"></path>
                <path d="M48.5270455,178.684932 L51.5638636,171.584932 L53.1211364,165.220548 L53.1115909,165.223288 L49.3861364,166.061644 L42.8106818,168.384932 L40.8334091,170.40137 L37.8170455,175.013699 L45.1111364,181.869863 L46.9125,180.968493 L47.7238636,179.054795 L48.5270455,178.684932 Z" id="Fill-27" fill="#BC8C7B"></path>
                <path d="M70.0665,181.380274 L71.3674091,181.52411 L67.9842273,177.906301 L64.9255909,171.756986 L58.6855909,173.42274 L56.9824091,174.41589 L53.8951364,176.21726 L48.5265,178.684384 L47.7233182,179.054247 L46.9133182,180.969315 L46.4278636,182.114521 L46.9637727,182.21589 L54.8701364,183.706301 L70.0665,181.380274 Z" id="Fill-28" fill="#AB7C70"></path>
                <path d="M85.7533636,172.042192 L81.027,171.680548 L74.4229091,180.56411 L72.2847273,174.16411 L68.8797273,170.753151 L64.2515455,170.401096 L64.9265455,171.75726 L67.9851818,177.905205 L71.3683636,181.524384 L75.0024545,185.410685 L79.8338182,180.86274 L80.2347273,180.484658 L82.4588182,176.217534 L83.8797273,174.416164 L85.7533636,172.042192 Z" id="Fill-29" fill="#553E48"></path>
                <path d="M68.8798636,170.753699 L72.2848636,174.163288 L74.4230455,180.563288 L81.0271364,171.681096 L83.9385,167.764658 L81.7212273,168.393425 L74.6385,170.400274 L67.0103182,168.881096 L68.8798636,170.753699 Z" id="Fill-30" fill="#442C35"></path>
                <path d="M75.3782727,156.393699 L80.2355455,155.530685 L82.6928182,155.530685 L95.8832727,162.192329 L96.711,162.67589 L95.9991818,160.934795 L94.2291818,156.606027 L93.0837273,153.807397 L85.7528182,148.315616 L76.5646364,151.751233 L75.3782727,156.393699 Z" id="Fill-31" fill="#E4BBA0"></path>
                <path d="M91.7305909,133.709452 C91.6337727,133.151918 91.1537727,131.643699 90.6001364,129.998493 L78.1569545,129.998493 L79.5342273,132.250548 L79.5342273,134.376575 L80.2351364,133.709452 L81.4569545,134.150548 C82.0501364,133.879315 82.8069545,133.709452 83.6428636,133.709452 C85.5246818,133.709452 87.0505909,134.538219 87.0505909,135.560137 C87.0505909,135.968356 86.7983182,136.342329 86.3851364,136.649178 L89.0115,138.269726 L92.2065,134.417671 C91.9528636,134.214932 91.7769545,133.980685 91.7305909,133.709452" id="Fill-32" fill="#D5A08A"></path>
                <path d="M73.1695909,123.336438 L72.9118636,113.100822 L69.9650455,119.392603 L73.1695909,123.336438 Z" id="Fill-34" fill="#E5BBA8"></path>
                <path d="M73.233,125.841233 L73.1689091,123.335753 L69.9657273,119.393288 L68.3743636,122.791918 L66.4175455,131.937123 L66.8170909,131.546712 L70.3189091,130.843973 L74.0948182,130.452192 L79.533,134.376849 L79.533,132.250822 L78.1570909,129.998767 L78.1434545,129.998767 L73.233,125.841233 Z" id="Fill-36" fill="#C99280"></path>
                <path id="Fill-38" fill="#C99280"></path>
                <path d="M11.0151818,87.0441096 L9.852,79.8249315 L11.2156364,70.4920548 L5.10927273,82.7673973 L7.57745455,101.205753 L12.3051818,106.620822 L14.5906364,109.24 L11.0151818,87.0441096 Z" id="Fill-40" fill="#36293C"></path>
                <path d="M43.0951364,80.4521918 L43.0951364,80.4521918 L44.7437727,79.7973973 L44.3251364,79.7905479 L36.6846818,79.6631507 L43.0951364,80.4521918 Z" id="Fill-42" fill="#9F7264"></path>
                <path d="M19.1270455,94.5086301 L22.7706818,94.049726 L24.5747727,92.9154795 L24.3047727,91.2387671 L21.5256818,92.0689041 L19.1270455,89.019589 L35.8738636,79.649726 L32.7975,79.5976712 L31.6425,79.5784932 L25.6111364,81.1236986 L19.1270455,86.2689041 L17.4934091,89.4278082 L16.8565909,90.6606849 L19.1270455,94.5086301 Z" id="Fill-44" fill="#9F7264"></path>
                <path d="M76.8557727,76.9691781 L86.4544091,80.4527397 L87.0503182,77.2143836 L89.0125909,72.0554795 L81.7212273,62.5171233 L74.9603182,57.6527397 L76.8557727,67.6773973 L76.8557727,76.9691781 Z" id="Fill-46" fill="#DCAC94"></path>
                <path d="M76.8557727,82.4524658 L72.2848636,79.5784932 L71.7216818,77.2086301 L63.6353182,78.9236986 L61.7480455,82.2236986 L62.3807727,83.0606849 L65.9603182,86.2949315 L68.2635,90.4620548 L68.8403182,89.4250685 L72.2848636,88.3168493 L74.3098636,86.2949315 L78.6639545,89.019589 L81.0557727,96.6127397 L84.1321364,88.9031507 L86.4544091,80.4524658 L76.8557727,76.9689041 L76.8557727,82.4524658 Z" id="Fill-48" fill="#C48E7C"></path>
                <path d="M52.0258636,53.2264384 L51.5649545,59.7867123 L53.3145,64.4620548 L54.2854091,67.0524658 L69.9658636,75.4579452 L71.4549545,76.0839726 L68.9172273,65.4017808 L63.0740455,59.7867123 L64.2522273,59.3949315 L55.6858636,54.2086301 L52.1090455,52.0415068 L52.0258636,53.2264384 Z" id="Fill-50" fill="#E1B9A1"></path>
                <path d="M40.8538636,112.542055 L39.7165909,112.940685 L31.3915909,112.940685 L31.8593182,114.548904 L24.3606818,107.855753 L23.9815909,108.650274 L22.7706818,111.19274 L26.9052273,115.318767 L30.7084091,119.117397 L42.1275,125.054384 L40.8197727,138.269452 L41.9788636,136.998219 L47.9065909,123.495479 L53.3502273,115.918767 L43.9302273,113.537945 L40.8538636,112.542055 Z" id="Fill-52" fill="#CE9B87"></path>
                <path d="M28.5291818,106.05726 L28.5400909,106.06137 L25.611,99.3380822 L24.8200909,94.4339726 L21.8364545,99.5928767 L21.8364545,103.450411 L22.5769091,104.95589 L23.7237273,107.287397 L24.3605455,107.85589 L31.8591818,114.549041 L31.3914545,112.940822 L30.7082727,112.940822 L28.5291818,106.05726 Z" id="Fill-54" fill="#A4786B"></path>
                <path d="M68.3736818,111.768904 L55.5336818,129.996301 L54.6186818,133.048356 L55.9577727,136.257945 L58.6864091,132.141507 L60.7468636,131.171644 L64.2514091,133.11137 L64.8473182,133.466164 L66.4168636,131.937397 L68.3736818,122.792192 L69.9650455,119.392192 L72.9118636,113.101781 L72.2845909,88.3168493 L68.3736818,111.768904 Z" id="Fill-56" fill="#D8A18F"></path>
                <path d="M74.0949545,130.452603 L70.3190455,130.843014 L66.8172273,131.547123 L66.4176818,131.936164 L64.8481364,133.466301 L71.4604091,137.410137 L75.0017727,137.800548 L77.4795,136.332055 L79.5331364,134.37726 L74.0949545,130.452603 Z" id="Fill-58" fill="#946160"></path>
                <path d="M81.4190455,134.167808 L80.2354091,133.708904 L79.5331364,134.377397 L77.4795,136.332192 L75.0017727,137.800685 L71.4604091,137.410274 L64.8481364,133.466438 L64.2508636,133.110274 L64.7676818,133.918493 C65.9799545,134.225342 66.8172273,134.840411 66.8172273,135.559589 C66.8172273,135.871918 66.6467727,136.160959 66.3713182,136.418493 L66.3781364,136.429452 L66.1940455,138.192466 L67.5263182,139.833562 L71.6758636,141.382877 L71.7017727,141.393836 L75.3781364,141.084247 L79.3463182,138.426712 L80.4563182,136.199315 C80.3213182,135.999315 80.2354091,135.785616 80.2354091,135.559589 C80.2354091,135.002055 80.7004091,134.507534 81.4190455,134.167808" id="Fill-60" fill="#8A575A"></path>
                <path d="M58.686,132.140959 L55.9587273,136.258767 L56.721,137.873836 L58.7937273,138.602603 L62.511,139.912192 L65.1046364,141.397123 L67.5346364,139.842329 L67.5264545,139.83274 L66.1941818,138.191644 L66.3782727,136.42863 L66.3714545,136.419041 C65.7428182,137.005342 64.5100909,137.410822 63.0741818,137.410822 C61.0069091,137.410822 59.331,136.582055 59.331,135.558767 C59.331,134.538219 61.0069091,133.709452 63.0741818,133.709452 C63.6878182,133.709452 64.2578182,133.788904 64.7678182,133.917671 L64.251,133.110822 L60.7478182,131.171096 L58.686,132.140959 Z" id="Fill-62" fill="#97615D"></path>
                <path d="M54.2270455,133.047808 L54.5993182,133.110822 L54.6184091,133.049178 L55.5334091,129.997123 L68.3734091,111.768356 L72.2843182,88.3163014 L68.8411364,89.4258904 L68.2643182,90.4628767 L65.9611364,86.2957534 L62.3815909,83.060137 L52.8879545,86.099863 L48.5243182,87.4971233 L46.4284091,88.1683562 L49.7406818,89.33 L57.4002273,92.0190411 L59.3515909,95.0012329 L64.2511364,102.488904 L62.3202273,105.357397 L57.9511364,122.557397 L54.0920455,127.142329 L54.2270455,133.047808 Z" id="Fill-64" fill="#A3726A"></path>
                <path d="M45.0953182,105.118493 C44.3085,105.632192 43.3907727,105.958219 42.4021364,106.034932 L42.3407727,106.055479 L41.9903182,106.055479 L41.9521364,106.056849 L41.9153182,106.055479 L37.8162273,106.056849 L30.7089545,101.837671 L28.5298636,101.837671 L28.5298636,100.804795 L25.6116818,99.3390411 L28.5394091,106.060959 L37.8162273,109.499315 L53.1203182,107.05 L53.1203182,102.915753 L52.1521364,102.717123 L45.0953182,105.118493 Z" id="Fill-66" fill="#A97874"></path>
                <path d="M24.3043636,91.2389041 L24.5743636,92.9156164 L24.8198182,94.4334247 L25.6107273,99.3389041 L30.0466364,94.5087671 L36.1816364,92.0183562 L38.3198182,92.0183562 L41.0034545,92.0389041 L39.4993636,91.5567123 L49.8275455,91.5567123 L57.9507273,94.9471233 L57.8620909,95.6430137 L59.3525455,95.0019178 L57.3998182,92.0183562 L49.7402727,89.3306849 L30.6970909,89.3306849 L24.3043636,91.2389041 Z" id="Fill-68" fill="#724C4F"></path>
                <path d="M41.0034545,92.0394521 L38.3198182,92.0189041 L36.1816364,92.0189041 L30.0466364,94.5093151 L25.6107273,99.3380822 L28.5289091,100.805205 L32.7316364,97.5558904 L36.9411818,95.9065753 L43.0952727,95.3367123 L48.6902727,97.0216438 L53.9961818,101.143562 L54.6370909,100.231233 L48.6902727,94.5093151 L41.0034545,92.0394521 Z" id="Fill-70" fill="#5E3B4A"></path>
                <path d="M53.1204545,102.915616 L53.1204545,102.386849 L52.1522727,102.716986 L53.1204545,102.915616 Z" id="Fill-72" fill="#5E3B4A"></path>
                <path d="M43.0951364,95.3365753 L36.9410455,95.9064384 L32.7315,97.5557534 L28.5287727,100.805068 L28.5287727,101.837945 L30.7078636,101.837945 L37.3010455,97.5557534 C38.3155909,97.0831507 45.4815,96.5680822 46.4660455,97.7228767 L53.1205909,102.38726 L53.9960455,101.143425 L48.6901364,97.0215068 L43.0951364,95.3365753 Z" id="Fill-74" fill="#34253C"></path>
                <path d="M42.3411818,106.054932 L42.4025455,106.034384 C42.2661818,106.045342 42.1284545,106.053562 41.9893636,106.056301 L42.3411818,106.054932 Z" id="Fill-76" fill="#EBD4BB"></path>
                <path d="M41.9151818,106.055753 C38.7447273,106.035205 36.1810909,103.448904 36.1810909,100.259863 C36.1810909,99.059863 36.6801818,98.4817808 37.302,97.5557534 L30.7088182,101.837945 L37.8160909,106.057123 L41.9151818,106.055753 Z" id="Fill-78" fill="#EBD4BB"></path>
                <path d="M46.4656364,97.7230137 C46.8829091,98.5257534 47.7229091,99.2928767 47.7229091,100.26 C47.7229091,102.296986 46.6756364,104.084658 45.0951818,105.118904 L52.1533636,102.716164 L53.1201818,102.387397 L46.4656364,97.7230137 Z" id="Fill-80" fill="#EBD4BB"></path>
                <path d="M38.7842727,43.4691781 L61.6865455,34.7047945 L85.5106364,25.5869863 L94.212,21.5363014 L85.527,13.819863 L85.5365455,13.840411 L60.2710909,26.5719178 L52.6551818,31.5061644 L28.0197273,47.5883562 L37.3879091,44.0034247 L38.7842727,43.4691781 Z" id="Fill-82" fill="#D8B89A"></path>
                <path d="M60.0238636,26.6961644 L4.46931818,54.6893151 L27.8120455,47.7249315 L28.0206818,47.5879452 L52.6547727,31.5057534 L60.0238636,26.6961644 Z" id="Fill-84" fill="#69483F"></path>
                <path d="M11.2153636,70.4919178 L14.7185455,63.4494521 L11.0149091,66.2494521 L0.437181818,74.2494521 L2.77172727,87.4672603 L5.109,82.7672603 L11.2153636,70.4919178 Z" id="Fill-86" fill="#B68E75"></path>
                <path d="M60.2708182,26.5716438 L85.5362727,13.840137 L85.5280909,13.819589 L81.7208182,4.80041096 L53.1103636,23.2771233 L62.9885455,20.4593151 L56.2044545,26.2209589 L19.6030909,45.1387671 L20.2180909,44.5182192 L4.46945455,54.6880822 L60.024,26.6963014 L60.2708182,26.5716438 Z" id="Fill-88" fill="#BB9177"></path>
                <path d="M36.9410455,12.6890411 L81.7215,4.80136986 L64.2505909,0.323287671 L36.9410455,12.6890411 Z" id="Fill-90" fill="#D8B89A"></path>
                <path d="M57.2025,147.866849 L49.3752273,152.218904 L41.7034091,156.484658 L42.9265909,164.524384 L51.5638636,158.16411 L64.2511364,148.824384 L71.4606818,151.638082 L74.6379545,152.810685 L75.5243182,151.505205 L81.7206818,142.375068 L73.8211364,144.486027 L70.7011364,144.518904 L63.0743182,144.602466 L57.2025,147.866849 Z" id="Fill-92" fill="#A4786B"></path>
                <path d="M87.0503182,135.559452 C87.0503182,134.537534 85.5257727,133.708767 83.6425909,133.708767 C82.8066818,133.708767 82.0498636,133.88 81.4580455,134.151233 L81.4185,134.167671 C80.6998636,134.507397 80.2348636,135.001918 80.2348636,135.559452 C80.2348636,135.785479 80.3207727,135.999178 80.4571364,136.199178 C80.9385,136.904658 82.1766818,137.410137 83.6425909,137.410137 C84.7716818,137.410137 85.7657727,137.108767 86.3862273,136.648493 C86.7994091,136.343014 87.0503182,135.969041 87.0503182,135.559452" id="Fill-94" fill="#351F34"></path>
                <path d="M63.0740455,133.709452 C61.0067727,133.709452 59.3308636,134.538219 59.3308636,135.560137 C59.3308636,136.582055 61.0067727,137.410822 63.0740455,137.410822 C64.5113182,137.410822 65.7440455,137.005342 66.3713182,136.419041 C66.6467727,136.161507 66.8172273,135.871096 66.8172273,135.560137 C66.8172273,134.840959 65.9799545,134.224521 64.7690455,133.917671 C64.2576818,133.788904 63.6876818,133.709452 63.0740455,133.709452" id="Fill-96" fill="#351F34"></path>
                <path d="M72.9111818,113.10137 L73.1689091,123.336986 L73.233,125.841096 L78.1434545,129.99863 L78.1570909,129.99863 L90.6002727,129.99863 L89.4820909,125.652055 L88.1402727,124.432877 L74.3102727,86.2945205 L72.2839091,88.3164384 L72.9111818,113.10137 Z" id="Fill-98" fill="#EBCFBB"></path>
                <path d="M43.0951364,80.4521918 L36.6846818,79.6631507 L36.0001364,79.5782192 L35.8733182,79.6494521 L19.1265,89.0193151 L21.5251364,92.0686301 L24.3042273,91.2384932 L30.6969545,89.330274 L26.1955909,89.330274 L43.0951364,82.3152055 L48.5237727,87.4973973 L52.8874091,86.0987671 L43.0951364,80.4521918 Z" id="Fill-100" fill="#A57B72"></path>
                <path d="M43.9306364,139.038767 L54.0856364,126.852466 L54.0924545,127.141507 L57.9515455,122.556575 L62.3206364,105.356575 L61.0197273,107.286712 L57.9515455,110.126438 L57.6433636,109.945616 L53.3506364,115.919589 L47.907,123.494932 L41.9792727,136.997671 L38.5006364,144.922329 L37.8474545,146.40863 L37.8160909,146.478493 L37.8488182,146.440137 L43.902,139.248356 L43.9306364,139.038767 Z" id="Fill-102" fill="#BF8C78"></path>
                <path d="M45.1119545,102.387534 L44.1601364,101.471096 C44.0278636,102.584795 43.0965,103.450548 41.9524091,103.450548 C40.7183182,103.450548 39.7174091,102.446438 39.7174091,101.206712 C39.7174091,100.083425 40.5383182,99.1615068 41.6087727,98.9957534 L40.3187727,97.7354795 L44.8446818,98.9121918 L45.1119545,102.387534 M36.1815,100.260137 C36.1815,103.449178 38.7451364,106.035479 41.9155909,106.054658 L41.9524091,106.057397 L41.9905909,106.054658 C42.1283182,106.054658 42.2660455,106.045068 42.4024091,106.03411 C43.3910455,105.957397 44.3087727,105.63274 45.0955909,105.117671 C46.6760455,104.084795 47.7233182,102.297123 47.7233182,100.260137 C47.7233182,99.2916438 46.8819545,98.5245205 46.4660455,97.7217808 C45.4815,96.5683562 38.3155909,97.0820548 37.3010455,97.5560274 C36.6792273,98.4820548 36.1815,99.0587671 36.1815,100.260137" id="Fill-104" fill="#294B8E"></path>
                <path d="M43.0981364,100.449452 L41.6090455,98.9960274 C40.5385909,99.1617808 39.7176818,100.083699 39.7176818,101.205616 C39.7176818,102.445342 40.7185909,103.450822 41.9526818,103.450822 C43.0954091,103.450822 44.0281364,102.585068 44.1604091,101.47137 L43.0981364,100.449452" id="Fill-106" fill="#111021"></path>
                <path d="M57.951,94.9472603 L49.8278182,91.5554795 L39.4996364,91.5554795 L41.0037273,92.0390411 L48.6905455,94.5089041 L54.636,100.232192 L57.8623636,95.6431507 L57.951,94.9472603 Z" id="Fill-108" fill="#2A1931"></path>
                <path d="M29.7748636,176.21726 L24.6312273,176.21726 L32.2648636,184.941918 L54.2848636,199.973425 L47.7230455,188.095342 L29.7748636,176.21726 Z" id="Fill-110" fill="#AB7C70"></path>
                <path d="M68.9176364,65.4017808 L71.4553636,76.0839726 L71.7212727,77.2086301 L72.2844545,79.5784932 L76.8553636,82.4524658 L76.8553636,76.9689041 L76.8553636,67.6771233 L74.9599091,57.6524658 L74.6380909,55.9510959 L64.2512727,59.3963014 L63.0744545,59.7867123 L68.9176364,65.4017808 Z" id="Fill-112" fill="#CA9483"></path>
                <path d="M28.5398182,106.060959 L28.5289091,106.056849 L30.708,112.941781 L31.3925455,112.941781 L39.7175455,112.941781 L40.8534545,112.541781 L54.1325455,107.881507 L53.1207273,107.286986 L53.1207273,107.05 L37.8166364,109.499315 L28.5398182,106.060959 Z" id="Fill-114" fill="#C0917C"></path>
                <path d="M26.1951818,89.330411 L30.6965455,89.330411 L49.7397273,89.330411 L46.4274545,88.1673973 L48.5233636,87.4975342 L43.0947273,82.3153425 L26.1951818,89.330411 Z" id="Fill-116" fill="#634C58"></path>
                <path d="M54.2852727,161.723014 L50.4452727,164.302466 L64.2507273,161.95726 L74.0948182,158.673699 L82.6925455,159.917534 L83.9389091,161.723014 L64.2507273,161.95726 L81.7407273,161.751781 L88.2957273,161.723014 L99.5020909,164.302466 L96.7107273,162.675068 L95.883,162.191507 L82.6925455,155.531233 L80.2352727,155.531233 L75.378,156.394247 L74.4234545,156.56411 L66.8170909,155.531233 L57.9234545,159.925753 L54.2852727,161.723014 Z" id="Fill-118" fill="#945A60"></path>
                <path d="M88.296,161.723014 L81.7396364,161.751781 L64.251,161.95726 L50.4455455,164.302466 L53.1128182,165.217534 L59.331,167.351781 L62.4114545,167.965479 L67.0096364,168.880548 L74.6378182,170.401096 L85.3328182,167.369589 L87.051,166.883288 L98.2641818,164.56 L99.486,164.306575 L99.5023636,164.302466 L88.296,161.723014 Z" id="Fill-120" fill="#CD9185"></path>
                <path d="M54.2852727,135.559452 L54.2266364,133.047123 L54.0916364,127.141644 L54.0848182,126.852603 L43.9311818,139.038904 L43.9025455,139.248493 L43.0952727,145.306027 L50.9784545,138.440274 L51.9561818,137.588219 L54.2852727,135.559452 Z" id="Fill-122" fill="#C4917D"></path>
                <path d="M12.4419545,109.499178 L10.0842273,112.941644 L13.5860455,142.374521 L15.8455909,143.637534 L13.6951364,122.069041 L12.5946818,111.037534 L12.4419545,109.499178 Z" id="Fill-124" fill="#BE8B7A"></path>
                <path d="M83.9389091,161.723014 L82.6925455,159.917534 L74.0948182,158.673699 L64.2507273,161.95726 L83.9389091,161.723014 Z" id="Fill-126" fill="#723C59"></path>
                <path d="M55.728,78.2310959 L49.2384545,78.2310959 L48.6902727,78.2310959 L44.823,79.7667123 L44.7439091,79.7968493 L43.0952727,80.4516438 L52.8875455,86.099589 L62.3811818,83.059863 L61.7470909,82.2242466 L59.9307273,79.8256164 L55.728,78.2310959 Z" id="Fill-128" fill="#976D5F"></path>
                <path d="M59.3522727,95.0019178 L57.8618182,95.6430137 L54.6368182,100.232055 L53.9959091,101.143014 L53.1204545,102.388219 L53.1204545,102.915616 L53.1204545,107.049863 L53.1204545,107.286849 L54.1322727,107.88274 L57.6422727,109.945753 L57.9504545,110.126575 L61.02,107.286849 L62.3195455,105.356712 L64.2504545,102.488219 L59.3522727,95.0019178 Z" id="Fill-130" fill="#704D55"></path>
                <path d="M40.3191818,97.7352055 L41.6091818,98.9954795 C41.7223636,98.9776712 41.8341818,98.9612329 41.9528182,98.9612329 C43.1869091,98.9612329 44.1878182,99.9667123 44.1878182,101.206438 C44.1878182,101.296849 44.1714545,101.383151 44.1605455,101.472192 L45.1123636,102.38726 L44.8450909,98.9119178 L40.3191818,97.7352055" id="Fill-132" fill="#294B8E"></path>
                <path d="M45.1119545,102.387534 L44.1601364,101.471096 C44.1710455,101.383425 44.1874091,101.297123 44.1874091,101.206712 C44.1874091,99.9656164 43.1865,98.960137 41.9524091,98.960137 C41.8337727,98.960137 41.7219545,98.9779452 41.6087727,98.9957534 L40.3187727,97.7354795 L44.8446818,98.9121918 L45.1119545,102.387534" id="Fill-134" fill="#B2B5D0"></path>
                <path d="M41.9522727,98.9606849 C41.835,98.9606849 41.7218182,98.9784932 41.61,98.9949315 L43.0977273,100.449726 L44.16,101.471644 C44.1709091,101.383973 44.1872727,101.297671 44.1872727,101.20589 C44.1872727,99.9661644 43.1863636,98.9606849 41.9522727,98.9606849" id="Fill-136" fill="#111021"></path>
                <path d="M44.1601364,101.471644 L44.1601364,101.471644 L43.0978636,100.449726 L41.6087727,98.9949315 C41.7219545,98.9784932 41.8337727,98.9606849 41.9524091,98.9606849 C43.1865,98.9606849 44.1874091,99.9661644 44.1874091,101.20589 C44.1874091,101.297671 44.1710455,101.383973 44.1601364,101.471644" id="Fill-138" fill="#99939B"></path>
                <path d="M56.2045909,26.2213699 L62.9886818,20.459726 L53.1105,23.2775342 L45.3214091,25.4980822 L29.8782273,34.7679452 L20.2182273,44.5186301 L19.6032273,45.1378082 L56.2045909,26.2213699 Z" id="Fill-140" fill="#89655B"></path>
                <path d="M42.8104091,168.384658 L43.4185909,167.76411 L42.9263182,164.524384 L41.7031364,156.484658 L41.2967727,153.807945 L38.9076818,163.386027 L37.8167727,167.76411 L39.4585909,172.502466 L40.8331364,170.401096 L42.8104091,168.384658 Z" id="Fill-142" fill="#BD8F7D"></path>
            </g>
        </g>
    </g>
</svg>