<?xml version="1.0" encoding="UTF-8" standalone="no"?>
<svg width="128px" height="128px" viewBox="0 0 128 128" version="1.1" xmlns="http://www.w3.org/2000/svg" xmlns:xlink="http://www.w3.org/1999/xlink" xmlns:sketch="http://www.bohemiancoding.com/sketch/ns">
    <!-- Generator: Sketch 3.3.3 (12072) - http://www.bohemiancoding.com/sketch -->
    <title>Slice 1</title>
    <desc>Created with Sketch.</desc>
    <defs></defs>
    <g id="Page-1" stroke="none" stroke-width="1" fill="none" fill-rule="evenodd" sketch:type="MSPage">
        <g id="soundcloud" sketch:type="MSLayerGroup" transform="translate(8.000000, 36.000000)" stroke="#000000" stroke-width="3">
            <path d="M48.6042345,60.647651 L48.6042345,4.05704698 C48.6042345,2.25391499 49.1427796,1.17897092 50.2198697,0.832214765 C52.5477742,0.277404922 54.8583062,0 57.1514658,0 C62.4674267,0 67.4185668,1.24832215 72.004886,3.74496644 C76.5912052,6.24161074 80.3002172,9.64848993 83.1319218,13.965604 C85.9636265,18.2827181 87.6053203,23.0419463 88.0570033,28.2432886 C90.1764387,27.3417226 92.4348534,26.8909396 94.8322476,26.8909396 C99.6965255,26.8909396 103.85722,28.6073826 107.314332,32.0402685 C110.771444,35.4731544 112.5,39.5995526 112.5,44.4194631 C112.5,49.2740492 110.771444,53.4177852 107.314332,56.8506711 C103.85722,60.283557 99.7138979,62 94.8843648,62 L49.5423453,61.9479866 C49.2296417,61.8439597 48.995114,61.6532438 48.8387622,61.3758389 C48.6824104,61.098434 48.6042345,60.8557047 48.6042345,60.647651 L48.6042345,60.647651 Z" id="Shape" sketch:type="MSShapeGroup"></path>
            <path d="M0.5,50.8691275 C0.5,52.2561521 1.00380022,53.3050895 2.01140065,54.0159396 C3.01900109,54.7267897 4.09609121,54.9781879 5.24267101,54.7701342 C6.31976113,54.5620805 7.07546145,54.1806488 7.50977199,53.6258389 C7.94408252,53.0710291 8.16123779,52.1521253 8.16123779,50.8691275 L8.16123779,35.7852349 C8.16123779,34.7102908 7.78773073,33.8000559 7.04071661,33.0545302 C6.2937025,32.3090045 5.38165038,31.9362416 4.30456026,31.9362416 C3.26221498,31.9362416 2.36753529,32.3090045 1.62052117,33.0545302 C0.873507058,33.8000559 0.5,34.7102908 0.5,35.7852349 L0.5,50.8691275 L0.5,50.8691275 Z" id="Path" sketch:type="MSShapeGroup"></path>
            <path d="M12.4869707,57.3187919 C12.4869707,58.3243848 12.8431053,59.0785794 13.5553746,59.5813758 C14.2676439,60.0841723 15.179696,60.3355705 16.2915309,60.3355705 C17.4381107,60.3355705 18.3675353,60.0841723 19.0798046,59.5813758 C19.7920738,59.0785794 20.1482085,58.3243848 20.1482085,57.3187919 L20.1482085,22.1577181 C20.1482085,21.1174497 19.7747014,20.2245526 19.0276873,19.4790268 C18.2806732,18.7335011 17.3686211,18.3607383 16.2915309,18.3607383 C15.2491857,18.3607383 14.354506,18.7335011 13.6074919,19.4790268 C12.8604777,20.2245526 12.4869707,21.1174497 12.4869707,22.1577181 L12.4869707,57.3187919 L12.4869707,57.3187919 Z" id="Path" sketch:type="MSShapeGroup"></path>
            <path d="M24.4218241,58.9832215 C24.4218241,59.9888143 24.786645,60.7430089 25.5162866,61.2458054 C26.2459283,61.7486018 27.1840391,62 28.3306189,62 C29.4424539,62 30.354506,61.7486018 31.0667752,61.2458054 C31.7790445,60.7430089 32.1351792,59.9888143 32.1351792,58.9832215 L32.1351792,26.8909396 C32.1351792,25.8159955 31.7616721,24.8970917 31.014658,24.1342282 C30.2676439,23.3713647 29.3729642,22.9899329 28.3306189,22.9899329 C27.2535288,22.9899329 26.3327904,23.3713647 25.5684039,24.1342282 C24.8040174,24.8970917 24.4218241,25.8159955 24.4218241,26.8909396 L24.4218241,58.9832215 L24.4218241,58.9832215 Z" id="Path" sketch:type="MSShapeGroup"></path>
            <path d="M36.4087948,59.1392617 C36.4087948,61.0464206 37.694354,62 40.2654723,62 C42.8365907,62 44.1221498,61.0464206 44.1221498,59.1392617 L44.1221498,7.12583893 C44.1221498,4.21308725 43.2361564,2.56599553 41.4641694,2.18456376 C40.3175896,1.90715884 39.1883822,2.23657718 38.0765472,3.17281879 C36.9647123,4.1090604 36.4087948,5.42673378 36.4087948,7.12583893 L36.4087948,59.1392617 L36.4087948,59.1392617 Z" id="Path" sketch:type="MSShapeGroup"></path>
        </g>
    </g>
</svg>