<?xml version="1.0" encoding="UTF-8" standalone="no"?>
<svg width="128px" height="128px" viewBox="0 0 128 128" version="1.1" xmlns="http://www.w3.org/2000/svg" xmlns:xlink="http://www.w3.org/1999/xlink" xmlns:sketch="http://www.bohemiancoding.com/sketch/ns">
    <!-- Generator: Sketch 3.3.3 (12072) - http://www.bohemiancoding.com/sketch -->
    <title>Slice 1</title>
    <desc>Created with Sketch.</desc>
    <defs></defs>
    <g id="Page-1" stroke="none" stroke-width="1" fill="none" fill-rule="evenodd" sketch:type="MSPage">
        <g id="spotify" sketch:type="MSLayerGroup" transform="translate(8.000000, 8.000000)">
            <g id="Shape" sketch:type="MSShapeGroup">
                <path d="M56,112 C86.9279475,112 112,86.9279475 112,56 C112,25.0720525 86.9279475,0 56,0 C25.0720525,0 0,25.0720525 0,56 C0,86.9279475 25.0720525,112 56,112 L56,112 Z" fill="#000000"></path>
                <path d="M72.1954837,77.5371121 C71.7906847,77.5252371 71.3871833,77.4051669 71.0213073,77.1742627 C71.0174151,77.1742627 70.5490419,76.8721081 69.5876444,76.3482854 C68.6249493,75.8231434 67.2068555,75.1000833 65.4397522,74.3413981 C61.9094381,72.8134723 56.9675174,71.1219341 51.4443468,70.4727636 C49.7486024,70.2748456 48.1164322,70.1534561 46.5556207,70.1019973 C39.5365103,69.8671348 34.019827,70.9292941 31.7713764,71.4544361 C31.0188654,71.6299233 30.6724509,71.7367989 30.6711535,71.7367989 C29.4191311,72.1102039 28.108724,71.377908 27.7402531,70.1059557 C27.3756747,68.8313646 28.0918575,67.4960787 29.3425825,67.1239931 C29.5021668,67.0778123 36.6185844,64.9680078 46.7048254,65.2991903 C48.3862982,65.3572463 50.1546989,65.4852331 51.9814839,65.7003039 C64.2357348,67.1582989 73.3566859,73.0100706 73.5253521,73.098474 C74.6333597,73.8043811 74.9680973,75.2874457 74.2752683,76.4102997 C73.8159772,77.1650266 73.0102714,77.5648207 72.1954837,77.5371121 L72.1954837,77.5371121 Z M80.7870825,63.3675119 C80.2084276,64.3056426 79.2042147,64.8096734 78.1857302,64.7740483 C77.6797314,64.7568953 77.1750301,64.6064778 76.7183338,64.3161982 C76.715739,64.3201565 76.6119445,64.2475867 76.3329963,64.0826551 C76.0514535,63.9164042 75.6284904,63.6723054 75.078379,63.3727898 C73.9703716,62.7684805 72.345986,61.9372253 70.3103143,61.0597895 C66.2493502,59.3035981 60.5652981,57.364003 54.2156629,56.6198319 C52.2721087,56.390247 50.392129,56.2543434 48.5951848,56.1949681 C40.5186669,55.9231609 34.1703292,57.1436544 31.5897357,57.7479637 C30.7282405,57.9511595 30.3377133,58.0672712 30.3351184,58.0712296 C28.7717121,58.5330379 27.1291625,57.6199768 26.6724662,56.0273976 C26.2131751,54.4334991 27.109701,52.7643917 28.6769995,52.3052223 C28.8755068,52.2432079 37.111609,49.8035403 48.7859073,50.1914594 C50.7320563,50.2561125 52.7742152,50.4012523 54.8903279,50.6519483 C69.0894301,52.3434863 79.6453418,59.1083192 79.8555259,59.2283894 C81.2346967,60.1124225 81.655065,61.9636143 80.7870825,63.3675119 L80.7870825,63.3675119 Z M87.7672699,50.1452784 C87.0705485,51.272091 85.8613414,51.8737613 84.6430521,51.8328582 C84.039746,51.8130665 83.4312502,51.6349404 82.885031,51.283966 C82.885031,51.283966 82.7578827,51.2021599 82.4283348,51.0055614 C82.1013818,50.8129214 81.604465,50.5239614 80.950559,50.1677092 C79.6479367,49.4618021 77.7316286,48.4840879 75.3339733,47.4469981 C70.5464469,45.3794161 63.8503973,43.090166 56.3732932,42.2127302 C54.0794324,41.9435619 51.8621201,41.7852275 49.7473051,41.7166159 C38.6451742,41.3392526 30.3156569,43.3566954 28.5680153,43.8277399 C28.3189082,43.8937126 28.2306827,43.9201017 28.2306827,43.9201017 C26.3532978,44.47823 24.38639,43.3804455 23.8362785,41.4725173 C23.2861671,39.56195 24.3604413,37.5577018 26.2417185,36.9995733 C26.4804462,36.9336007 36.2008112,34.0519165 49.9782479,34.511086 C52.2760011,34.5862948 54.684036,34.7551846 57.1815938,35.050742 C73.9470178,37.0497126 86.3932888,45.0310806 86.646288,45.174901 C88.3031094,46.2304629 88.8052159,48.4590182 87.7672699,50.1452784 L87.7672699,50.1452784 Z" fill="#FFFFFF"></path>
            </g>
        </g>
    </g>
</svg>