<?xml version="1.0" encoding="UTF-8" standalone="no"?>
<svg width="128px" height="128px" viewBox="0 0 128 128" version="1.1" xmlns="http://www.w3.org/2000/svg" xmlns:xlink="http://www.w3.org/1999/xlink" xmlns:sketch="http://www.bohemiancoding.com/sketch/ns">
    <!-- Generator: Sketch 3.3.2 (12043) - http://www.bohemiancoding.com/sketch -->
    <title>Slice 1</title>
    <desc>Created with Sketch.</desc>
    <defs></defs>
    <g id="Page-1" stroke="none" stroke-width="1" fill="none" fill-rule="evenodd" sketch:type="MSPage">
        <g id="twitter" sketch:type="MSLayerGroup" transform="translate(8.000000, 18.000000)" fill="#000000">
            <path d="M112.00167,10.7967712 C107.872795,12.623917 103.45917,13.8578338 98.808253,14.4273338 C103.554086,11.5798337 107.208378,7.07129188 108.916878,1.70850005 C104.479524,4.34243763 99.5675863,6.26450019 94.3234403,7.28485439 C90.1233777,2.80004175 84.1198984,0 77.546919,0 C64.8518145,0 54.577085,10.2984586 54.577085,22.9935632 C54.577085,24.7969799 54.7669183,26.5529383 55.1703142,28.2377092 C36.0683344,27.2885425 19.1019797,18.1290839 7.7831669,4.20006263 C5.81364601,7.59333356 4.67464597,11.5561045 4.67464597,15.7561671 C4.67464597,23.7291674 8.7323336,30.7767301 14.9019171,34.9056052 C11.1527087,34.8106885 7.59333356,33.7666052 4.5085418,32.034376 L4.5085418,32.319126 C4.5085418,43.4718346 12.4340837,52.7499391 22.9461049,54.861835 C21.0240423,55.3838767 18.9833339,55.6686267 16.8951672,55.6686267 C15.4239588,55.6686267 13.9764796,55.5262517 12.5764587,55.2415017 C15.4951463,64.3772311 23.9901882,71.021398 34.0513552,71.2112313 C26.1970008,77.3808148 16.2782088,81.0588358 5.50516683,81.0588358 C3.65429178,81.0588358 1.82714589,80.9401899 0.0237291674,80.7266274 C10.1560836,87.323336 22.2342298,91.1200027 35.1903552,91.1200027 C77.4757315,91.1200027 100.61167,56.0720225 100.61167,25.6749591 C100.61167,24.6783341 100.587941,23.681709 100.540482,22.7088132 C105.001566,19.4579173 108.916878,15.4239588 112.00167,10.7967712 L112.00167,10.7967712 Z M98.2862113,19.6240214 L96.6251696,20.834209 L96.7200862,22.8749174 C96.7675446,23.7766257 96.7912738,24.7257924 96.7912738,25.6749591 C96.7912738,32.8411677 95.3912529,40.3395845 92.7573153,47.3871473 C89.9810027,54.7906475 85.9945026,61.4822727 80.8927316,67.2721895 C75.4350231,73.4655022 68.9806896,78.3062524 61.6483769,81.6995233 C53.6279183,85.4250026 44.7294805,87.2996068 35.1903552,87.2996068 C28.3326259,87.2996068 21.5698132,86.1606068 15.1392088,83.930065 C17.4883964,83.4792108 19.7901256,82.8385233 22.0443965,82.0554608 C27.1936258,80.2520441 31.9869176,77.6181065 36.3056261,74.2248356 L44.6820222,67.6518562 L34.027626,67.4620229 C27.8343133,67.343377 22.2342298,64.2823144 18.7697714,59.4178351 C20.5020006,59.2991893 22.2105007,58.9907101 23.8715424,58.5398559 L38.275147,53.7465641 L23.6342507,51.1600849 C16.6104172,49.760064 11.1052503,44.5396472 9.08827111,37.9192095 C10.9391462,38.3937928 12.7425629,38.5836262 14.7595421,38.702272 C14.7595421,38.702272 22.3054173,39.0344803 28.0004175,38.6785428 C24.9156258,37.2073345 16.9900838,31.749626 16.9900838,31.749626 C11.6510212,28.1665217 8.44758359,22.2105007 8.44758359,15.7561671 C8.44758359,14.2375004 8.63741693,12.7188337 8.96962527,11.2476253 C14.1663129,16.5629588 20.1223339,21.0003131 26.79023,24.4173132 C35.5700219,28.9495842 45.0379597,31.4886051 54.9330225,31.9869176 L59.963606,32.2479385 L58.8246059,27.3360008 C58.4923976,25.9359799 58.3262934,24.4647716 58.3262934,22.9461049 C58.3262934,12.4103545 66.9399812,3.79666678 77.5231898,3.79666678 C82.8147942,3.79666678 87.9165652,6.00347935 91.5233986,9.87133363 L92.9708778,11.4137295 L95.0353154,11.0103337 C96.1031279,10.7967712 97.1472113,10.5594795 98.1912946,10.2747295 C97.954003,10.6069378 96.8387321,11.7222087 95.5810862,12.8374796 C94.5132737,13.7866462 91.3572944,16.7527922 91.3572944,16.7527922 C91.3572944,16.7527922 94.4420862,17.725688 96.3641487,17.9392505 C98.2862113,18.152813 100.493024,17.7968755 100.848961,17.7494172 C100.184545,18.2951881 98.9980863,19.1257089 98.2862113,19.6240214 L98.2862113,19.6240214 Z" id="Shape" sketch:type="MSShapeGroup"></path>
        </g>
    </g>
</svg>