<?xml version="1.0" encoding="UTF-8" standalone="no"?>
<svg width="128px" height="128px" viewBox="0 0 128 128" version="1.1" xmlns="http://www.w3.org/2000/svg" xmlns:xlink="http://www.w3.org/1999/xlink" xmlns:sketch="http://www.bohemiancoding.com/sketch/ns">
    <!-- Generator: Sketch 3.3.2 (12043) - http://www.bohemiancoding.com/sketch -->
    <title>Slice 1</title>
    <desc>Created with Sketch.</desc>
    <defs></defs>
    <g id="Page-1" stroke="none" stroke-width="1" fill="none" fill-rule="evenodd" sketch:type="MSPage">
        <g id="youtube" sketch:type="MSLayerGroup" transform="translate(8.000000, 22.000000)" fill="#000000">
            <path d="M57.9603632,6.97267527 C72.1889787,6.97267527 83.8246306,7.21236099 94.588698,7.69173241 L94.7412253,7.69173241 L94.8937526,7.69173241 C99.9271525,7.69173241 104.045389,12.4854467 104.045389,18.390431 L104.045389,18.6301167 L104.067178,18.8698025 C104.568339,26.2782699 104.808025,33.9700024 104.808025,41.7271036 L104.808025,41.7271036 C104.829815,49.4842048 104.568339,57.1759372 104.067178,64.5844047 L104.045389,64.8240904 L104.045389,65.0637761 C104.045389,68.0707424 103.021277,70.8598125 101.125581,72.9298254 C99.4259915,74.8037319 97.2034512,75.8496332 94.8937526,75.8496332 L94.7194357,75.8496332 L94.5451188,75.8496332 C83.018415,76.3943735 70.8380229,76.6776384 58.2872074,76.6776384 L55.9775087,76.6776384 L55.9992983,76.6776384 L55.9775087,76.6776384 L53.6242308,76.6776384 C41.0298361,76.6776384 28.8494439,76.3943735 17.4098986,75.8714228 L17.2355817,75.8714228 L17.0612648,75.8714228 C14.7515661,75.8714228 12.5508155,74.8255215 10.8512259,72.9516151 C8.97731942,70.8816021 7.93141812,68.092532 7.93141812,65.0855658 L7.93141812,64.84588 L7.90962851,64.6061943 C7.38667787,57.1759372 7.14699216,49.4842048 7.19057138,41.7924724 L7.19057138,41.7706828 L7.19057138,41.7488932 C7.16878177,34.0571608 7.40846748,26.387218 7.90962851,18.9569609 L7.93141812,18.7172752 L7.93141812,18.4775895 C7.93141812,12.5508155 12.0278648,7.73531163 17.0612648,7.73531163 L17.2137921,7.73531163 L17.3663194,7.73531163 C28.1521764,7.2341506 39.7878283,7.01625449 54.0164438,7.01625449 L55.9775087,7.01625449 L57.9603632,7.01625449 L57.9603632,6.97267527 Z M57.9603632,-7.10542736e-15 L55.9992983,-7.10542736e-15 L54.0382334,-7.10542736e-15 C41.4874179,-7.10542736e-15 29.1544985,0.174316882 17.0830544,0.719057138 C8.19289345,0.719057138 0.98053246,8.62868565 0.98053246,18.4340103 C0.435792205,26.2346907 0.196106492,33.991792 0.217896102,41.7706828 C0.196106492,49.5495737 0.414002594,57.3066749 0.95874285,65.0855658 C0.95874285,74.8908904 8.17110384,82.8658877 17.0612648,82.8658877 C29.0019712,83.4324176 41.1823633,83.6938929 53.6242308,83.6938929 L55.9992983,83.6938929 L58.3307866,83.6938929 C70.772654,83.6938929 82.9530461,83.4324176 94.9155422,82.8658877 C103.827493,82.8658877 111.039854,74.8908904 111.039854,65.0855658 C111.562804,57.3066749 111.80249,49.5277841 111.7807,41.7488932 C111.80249,33.9700024 111.562804,26.2129011 111.039854,18.4122206 C111.039854,8.60689604 103.827493,0.740846748 94.9155422,0.740846748 C82.8440981,0.174316882 70.5329683,-7.10542736e-15 57.9603632,-7.10542736e-15 L57.9603632,-7.10542736e-15 L57.9603632,-7.10542736e-15 Z" id="Shape" sketch:type="MSShapeGroup"></path>
            <path d="M45.3223893,63.1462904 L45.3223893,20.351496 L76.9173241,41.7488932 L45.3223893,63.1462904 L45.3223893,63.1462904 Z" id="Shape" sketch:type="MSShapeGroup"></path>
        </g>
    </g>
</svg>